<?xml version="1.0" encoding="utf-8"?>
<!-- Generator: Adobe Illustrator 18.1.1, SVG Export Plug-In . SVG Version: 6.00 Build 0)  -->
<svg version="1.1" id="Layer_1" xmlns="http://www.w3.org/2000/svg" xmlns:xlink="http://www.w3.org/1999/xlink" x="0px" y="0px"
	 viewBox="0 0 380 461.9" enable-background="new 0 0 380 461.9" xml:space="preserve">
<path fill="#F5F5F5" d="M372.7,0.1H7.3C3.2,0.1,0,3.4,0,7.4v233.8c0,4.1,3.4,7.3,7.3,7.3h137.2l-5.3,33l-15.1,5v5.8H190h65.8v-5.8
	l-15.1-5l-5.3-33h137.2c4.1,0,7.3-3.4,7.3-7.3V7.4C380,3.4,376.8,0.1,372.7,0.1z M190,230.7c-4.8,0-8.8-3.9-8.8-8.8
	c0-4.8,3.9-8.8,8.8-8.8c4.8,0,8.8,3.9,8.8,8.8C198.8,226.8,194.8,230.7,190,230.7z M358.1,201.8H21.9V20.5h336.2V201.8z"/>
<path fill="#F5F5F5" d="M0.9,314v140.7c0,3.8,3.2,7,7,7h176c3.8,0,7-3.2,7-7V314c0-3.8-3.2-7-7-7H7.9C3.9,307,0.9,310.2,0.9,314z
	 M184.7,384.5c0,3.1-2.5,5.7-5.7,5.7c-3.1,0-5.7-2.5-5.7-5.7s2.5-5.7,5.7-5.7C182.3,378.8,184.7,381.4,184.7,384.5z M168.4,321
	v126.7h-152V321L168.4,321L168.4,321z"/>
<path fill="#F5F5F5" d="M370.2,344.9h-44.9c-5.4,0-9.8,4.4-9.8,9.8v97.5c0,5.4,4.4,9.8,9.8,9.8h44.9c5.4,0,9.8-4.4,9.8-9.8v-97.5
	C380,349.2,375.6,344.9,370.2,344.9z M347.8,456.2c-3.2,0-5.8-2.6-5.8-5.8c0-3.2,2.6-5.8,5.8-5.8c3.2,0,5.8,2.6,5.8,5.8
	C353.7,453.6,351.1,456.2,347.8,456.2z M372.3,438.4h-48.7v-77.9h48.7V438.4z"/>
</svg>
