<?xml version="1.0" encoding="utf-8"?>
<!-- Generator: Adobe Illustrator 18.1.1, SVG Export Plug-In . SVG Version: 6.00 Build 0)  -->
<svg version="1.1" id="Layer_1" xmlns="http://www.w3.org/2000/svg" xmlns:xlink="http://www.w3.org/1999/xlink" x="0px" y="0px"
	 viewBox="0 0 900 300" enable-background="new 0 0 900 300" xml:space="preserve">
<g id="Layer_1_1_">
</g>
<g id="лінії">
</g>
<g id="Layer_5">
	<g id="Layer_4">
	</g>
</g>
<g id="Layer_6">
	<g>
		<path fill="none" d="M209.8,163.4c-10.8-11.1-21.7-17.5-40.5-30.6c-10.5-7.4-20.1-15.9-28.7-25.4c-1.9-2.1-3.4-4-4.3-5.2
			c-1.3-1.9-2.4-3.9-3.1-6c0.8,2.1,1.3,4.4,1.5,6.6c0.1,1.5,0.1,3.9,0.1,6.7c-0.3,12.8-2.1,25.5-5.4,37.9
			c-5.8,22.2-9.9,34.1-11,49.5c-0.4,6.6,0,12.3,1.1,17.6c1.1-17.3,20-54.9,28.9-71.7c-1.8-0.7-3.5-1.5-5.3-2.2l0.5-2.7
			c0,0,2.3,0.9,6.1,2.4c1.9-3.6,3.1-5.8,3.1-5.8l2.2,1.7c-0.9,1.7-1.7,3.4-2.6,5.1c16.9,6.8,53.4,22.2,66.9,34.4
			C216.9,171.7,213.8,167.6,209.8,163.4z"/>
		<path fill="#6DB8E6" d="M759.1,129.5C744,119,716.2,102.4,712,77.2c-3.7-22-17.4-31.2-17.4-31.2l6.9,29.2l-13.6-26.7
			c0,0-4.5,15.9,6.9,35c13.1,21.9,2.7,52.6-2,70.3c-3.6,13.8-14.8,46.6-5.3,72.6c6.6,17.9,18.4,28.9,29.9,35.7
			c14.2,8.4,7.2-0.5-2-11.5c-4.7-5.6-8.8-10.6-12.4-16.7l4.9-1.8l-1.3-9.1l-4.7,1.7c-1.4-1.6-2.8-5-3-6.8
			c-1.8-14.2,12.8-43.5,28.3-73.9c31.5,13.1,61.6,26,69.4,38c1,1.6,2.1,5,2.1,7.1L794,191l4.9,7.8l4.3-1.6c1.3,7,1.3,13.5,1.4,20.7
			c0.2,14.3,0.7,25.8,6,10.2c4.4-12.7,6.2-28.8-0.4-46.7C800.7,155.5,770.8,137.7,759.1,129.5z M728.5,141.4
			c0.9-1.7,1.7-3.4,2.6-5.1l-2.2-1.7c0,0-1.2,2.2-3.1,5.8c-3.8-1.5-6.1-2.4-6.1-2.4l-0.5,2.7c1.8,0.7,3.5,1.5,5.3,2.2
			c-8.9,16.8-27.8,54.4-28.9,71.7c-1.1-5.3-1.5-11.1-1.1-17.6c1-15.5,5.2-27.4,11-49.5c3.2-12.4,5.1-25.1,5.4-37.9
			c0.1-2.8,0.1-5.2-0.1-6.7c-0.2-2.3-0.7-4.5-1.5-6.6c0.8,2.1,1.8,4.2,3.1,6c0.9,1.2,2.4,3.1,4.3,5.2c8.5,9.6,18.2,18.1,28.7,25.4
			c18.8,13.1,29.6,19.5,40.5,30.6c4,4.1,7.2,8.3,9.6,12.4C781.9,163.6,745.4,148.2,728.5,141.4z"/>
	</g>
	<g id="Layer_2">
		<text transform="matrix(1 0 0 1 62 203.9387)" fill="#111111" font-family="'MonotypeCorsiva'" font-size="160">Кусачки</text>
	</g>
</g>
</svg>
