<?xml version="1.0" encoding="utf-8"?>
<!-- Generator: Adobe Illustrator 18.1.1, SVG Export Plug-In . SVG Version: 6.00 Build 0)  -->
<svg version="1.1" xmlns="http://www.w3.org/2000/svg" xmlns:xlink="http://www.w3.org/1999/xlink" x="0px" y="0px"
	 viewBox="0 0 900 300" enable-background="new 0 0 900 300" xml:space="preserve">
<g id="Layer_1">
	<g id="Layer_1_1_">
	</g>
	<g id="лінії">
	</g>
	<g id="Layer_5">
		<g id="Layer_4">
		</g>
	</g>
	<g id="Layer_6">
		<g>
			<path fill="none" d="M209.8,163.4c-10.8-11.1-21.7-17.5-40.5-30.6c-10.5-7.4-20.1-15.9-28.7-25.4c-1.9-2.1-3.4-4-4.3-5.2
				c-1.3-1.9-2.4-3.9-3.1-6c0.8,2.1,1.3,4.4,1.5,6.6c0.1,1.5,0.1,3.9,0.1,6.7c-0.3,12.8-2.1,25.5-5.4,37.9
				c-5.8,22.2-9.9,34.1-11,49.5c-0.4,6.6,0,12.3,1.1,17.6c1.1-17.3,20-54.9,28.9-71.7c-1.8-0.7-3.5-1.5-5.3-2.2l0.5-2.7
				c0,0,2.3,0.9,6.1,2.4c1.9-3.6,3.1-5.8,3.1-5.8l2.2,1.7c-0.9,1.7-1.7,3.4-2.6,5.1c16.9,6.8,53.4,22.2,66.9,34.4
				C216.9,171.7,213.8,167.6,209.8,163.4z"/>
		</g>
		<g id="Layer_2">
			<text transform="matrix(1 0 0 1 62 203.9387)" fill="#111111" font-family="'MonotypeCorsiva'" font-size="140">Ножнички</text>
		</g>
	</g>
</g>
<g id="Layer_2_1_">
	<g>
		
			<ellipse transform="matrix(-0.3737 -0.9275 0.9275 -0.3737 910.795 1027.3629)" fill="none" cx="802.2" cy="206.2" rx="35.4" ry="18.6"/>
		
			<ellipse transform="matrix(-0.3737 -0.9275 0.9275 -0.3737 824.9919 1011.4572)" fill="none" cx="754" cy="227.2" rx="35.4" ry="18.6"/>
		<path fill="#6DB8E6" d="M793.3,166.7c-5.1,2-10.6,8.6-15.4,7.6l-38.4-87.7l-21.2-34.3l0,0l9.2,39.5l33.2,89.4
			c-2.7,4.1-12.3,3.6-16.2,5.3c-11.5,5.1-13.6,26.9-4.7,49s25.5,36.2,37.1,31.5c11.6-4.7,13.8-26.3,4.9-48.4L768,181l0,0l-21.4-58.2
			l-0.5-1.3l25.5,56.6l0,0l16.6,36.7c8.9,22.1,25.5,36.1,37.2,31.4c11.6-4.7,13.9-26.1,5-48.2C821.4,175.9,805,162.1,793.3,166.7z
			 M774.2,260.1c-9.6,3.8-23.2-7.7-30.5-25.9c-7.3-18.1-5.5-36,4.1-39.8c9.6-3.8,23.2,7.7,30.5,25.9
			C785.6,238.4,783.8,256.2,774.2,260.1z M822.5,239c-9.6,3.8-23.2-7.7-30.5-25.9s-5.5-36,4.1-39.8c9.6-3.8,23.2,7.7,30.5,25.9
			S832,235.2,822.5,239z"/>
	</g>
</g>
</svg>
