<?xml version="1.0" encoding="utf-8"?>
<!-- Generator: Adobe Illustrator 18.1.1, SVG Export Plug-In . SVG Version: 6.00 Build 0)  -->
<svg version="1.1" xmlns="http://www.w3.org/2000/svg" xmlns:xlink="http://www.w3.org/1999/xlink" x="0px" y="0px"
	 viewBox="0 0 900 300" enable-background="new 0 0 900 300" xml:space="preserve">
<g id="Layer_1">
	<g id="Layer_1_1_">
	</g>
	<g id="лінії">
	</g>
	<g id="Layer_5">
		<g id="Layer_4">
		</g>
	</g>
	<g id="Layer_6">
		<g>
			<path fill="none" d="M209.8,163.4c-10.8-11.1-21.7-17.5-40.5-30.6c-10.5-7.4-20.1-15.9-28.7-25.4c-1.9-2.1-3.4-4-4.3-5.2
				c-1.3-1.9-2.4-3.9-3.1-6c0.8,2.1,1.3,4.4,1.5,6.6c0.1,1.5,0.1,3.9,0.1,6.7c-0.3,12.8-2.1,25.5-5.4,37.9
				c-5.8,22.2-9.9,34.1-11,49.5c-0.4,6.6,0,12.3,1.1,17.6c1.1-17.3,20-54.9,28.9-71.7c-1.8-0.7-3.5-1.5-5.3-2.2l0.5-2.7
				c0,0,2.3,0.9,6.1,2.4c1.9-3.6,3.1-5.8,3.1-5.8l2.2,1.7c-0.9,1.7-1.7,3.4-2.6,5.1c16.9,6.8,53.4,22.2,66.9,34.4
				C216.9,171.7,213.8,167.6,209.8,163.4z"/>
		</g>
		<g id="Layer_2">
			<text transform="matrix(1 0 0 1 62 128.9387)" enable-background="new    "><tspan x="0" y="0" fill="#111111" font-family="'MonotypeCorsiva'" font-size="100">Популярні </tspan><tspan x="0" y="120" fill="#111111" font-family="'MonotypeCorsiva'" font-size="100">відтінки</tspan></text>
		</g>
	</g>
</g>
<g id="Layer_2_1_">
	<rect x="725.6" y="86.9" fill="#6BB8E6" width="53.3" height="160"/>
</g>
<g id="Layer_4_1_">
</g>
<g id="Layer_3">
	<rect x="783.9" y="145" fill="#7737A0" width="53.3" height="101.9"/>
</g>
<g id="Layer_5_1_">
</g>
<g id="Layer_6_1_">
	<polyline fill="#41A336" points="667.3,246.9 667.3,169 720.6,169 720.6,246.9 	"/>
</g>
</svg>
