<?xml version="1.0" encoding="utf-8"?>
<!-- Generator: Adobe Illustrator 18.1.1, SVG Export Plug-In . SVG Version: 6.00 Build 0)  -->
<svg version="1.1" xmlns="http://www.w3.org/2000/svg" xmlns:xlink="http://www.w3.org/1999/xlink" x="0px" y="0px"
	 viewBox="0 0 900 300" enable-background="new 0 0 900 300" xml:space="preserve">
<g id="Layer_1">
</g>
<g id="лінії">
</g>
<g id="Layer_5">
	<g id="Layer_4">
		<g id="Layer_1_1_">
			<g>
				<path fill="#171717" d="M784.3,163.9h-34.9h-0.8h-34c-4.9,0-8.4,4.3-7.6,9.1l14.4,83.5c0.8,5.1,5.3,8.8,10.3,8.8h16.9h0.8h17.8
					c5.2,0,9.5-3.7,10.3-8.8l14.4-83.5C792.7,168.3,789,163.9,784.3,163.9z M782.6,182.2l-11.2,65.2c-0.6,3.9-4.1,6.9-8.1,6.9h-13.9
					h-0.6h-13.2c-4,0-7.4-2.8-8.1-6.9l-11.2-65.2c-0.6-3.7,2.2-7.1,6-7.1h26.6h0.6h27.2C780.4,175,783.2,178.4,782.6,182.2z"/>
				<path fill="#6DB9E7" d="M724,189.8l8.2,53.1c0.5,3.4,3.2,5.9,6.3,5.9h10.3h0.5h10.9c3.2,0,5.8-2.5,6.3-5.9l8.1-53.1
					c0.2-1.1-3.2-4.3-8.4-3.1c-3.4,0.7-5.2,4.4-15.8,0.6c-4.6-1.7-8.8,4-13.1,4.2C729.8,192,728.1,186,724,189.8z"/>
			</g>
			<path fill="#171717" d="M772.6,157.5c-1.6,1.2-3.4,1.7-5.3,1.7h-17.9h-17.9c-1.9,0-3.8-0.6-5.3-1.7c-2.5-1.8-3.9-4.7-3.7-7.8
				l5.7-97.4c0.2-3.4,3.1-6.1,6.4-6.1h14.8h14.8c3.5,0,6.2,2.6,6.4,6.1l5.7,97.4C776.5,152.8,775.1,155.7,772.6,157.5z"/>
			<path display="none" fill="#212121" d="M776.6,175h-27.2h-0.6h-26.6c-3.8,0-6.6,3.4-6,7.1l11.2,65.2c0.6,3.9,4.1,6.9,8.1,6.9
				h13.2h0.6h14c4,0,7.4-2.8,8.1-6.9l11.2-65.2C783.2,178.4,780.4,175,776.6,175z"/>
		</g>
		<g id="Layer_2">
			<text transform="matrix(0.9102 0 0 1 54 214.6103)" fill="#171717" font-family="'MonotypeCorsiva'" font-size="195.9255">#</text>
			<text transform="matrix(0.9102 0 0 1 175.2603 214.6103)" fill="#6DB9E7" font-family="'MonotypeCorsiva'" font-size="195.9255">69b8e7</text>
		</g>
	</g>
</g>
</svg>
