<?xml version="1.0" encoding="utf-8"?>
<!-- Generator: Adobe Illustrator 18.1.1, SVG Export Plug-In . SVG Version: 6.00 Build 0)  -->
<svg version="1.1" xmlns="http://www.w3.org/2000/svg" xmlns:xlink="http://www.w3.org/1999/xlink" x="0px" y="0px"
	 viewBox="0 0 900 300" enable-background="new 0 0 900 300" xml:space="preserve">
<g id="Layer_1">
</g>
<g id="Layer_3">
	<g>
		<path fill="#161616" d="M101.4,99.6c0,0.4,0.2,0.8,0.4,1.2l19.3,41.9l11.4-24.4l-11.5-25.2c-0.2-0.4-0.2-0.9-0.5-1.2l-3.7-3.5
			c-3.7-3.3-6.7-7.3-8.8-11.9c-0.7-1.5-0.9-3.2-0.7-4.9l0.4-2.9c0.4-2.9-0.6-5.8-2.5-8L82,34.2l-0.4-1l5.9,34.6
			c0.5,2.9,2.2,5.4,4.7,7l2.4,1.6c1.4,0.9,2.5,2.2,3.3,3.7c2.1,4.5,3.3,9.4,3.4,14.4L101.4,99.6z"/>
		<path fill="#161616" d="M197.3,256.9l-11.2-23.9c-0.7-1.4-1.6-2.7-3-3.3c-2.2-0.9-5.4-3.2-7.9-8.4c-3.8-8.2-4.6-10.1-2.5-14.6
			c0.4-1,0.3-1.9,0-2.9c-0.1-0.2-0.4-0.4-0.5-0.6l-21.7-47.4L139.1,180l14,30.8c0.1,0.2,0.2,0.5,0.3,0.7c0.6,0.9,1.4,1.5,2.4,1.8
			c4.8,1.3,5.6,3.2,9.5,11.4c2.4,5.2,2,9.2,1.3,11.5c-0.5,1.5-0.3,3.1,0.4,4.6l11.2,23.9c1.4,2.9,5.2,5.2,8.1,3.9l4.3-2l4.3-2
			C197.8,263.1,198.6,259.8,197.3,256.9z"/>
	</g>
	<path fill="#6BB7E6" d="M79,264.7l5.3,2.5c3.6,1.7,7.8,0.1,9.4-3.4l23.6-50.7l-18.1-8.5l-23.6,50.7C73.9,258.8,75.4,263.1,79,264.7
		z"/>
	<path fill="#161616" d="M103.4,195.6l18.1,8.5l64.3-137.9c1.2-2.6,2-5.3,2.4-8.1l4-29.2l-21,23.9c-1.7,2-3.2,4.2-4.3,6.6
		L103.4,195.6z"/>
</g>
<g id="Layer_4">
	<text transform="matrix(1 0 0 1 305 116.4319)"><tspan x="0" y="0" fill="#6CB7E6" font-family="'MonotypeCorsiva'" font-size="100">Назви </tspan><tspan x="0" y="120" fill="#6CB7E6" font-family="'MonotypeCorsiva'" font-size="100">інструментів</tspan></text>
</g>
</svg>
