<?xml version="1.0" encoding="utf-8"?>
<!-- Generator: Adobe Illustrator 18.1.1, SVG Export Plug-In . SVG Version: 6.00 Build 0)  -->
<svg version="1.1" id="Layer_1" xmlns="http://www.w3.org/2000/svg" xmlns:xlink="http://www.w3.org/1999/xlink" x="0px" y="0px"
	 viewBox="0 0 239.5 239.5" enable-background="new 0 0 239.5 239.5" xml:space="preserve">
<circle fill="#F5F6F6" stroke="#212121" stroke-width="8" stroke-miterlimit="10" cx="120.2" cy="120" r="115"/>
<path fill="#212121" d="M194.9,49.1l-14.1,13.6c0,0-0.5-0.4-1.3-1c-2.4-1.8-12.4-5.7-13.6-5.8c-1.6-0.2,10.8,1,13-0.1
	c2.2-1.1-3.9-15.7-4.1-12.4c-0.2,2.7-5,0-7.6-2.2c-6.2-5.2-4.4-8.4-4.4-9.4c0-1-1.2,2.1-11.6,2.5c-10.3,0.4-20.4-8.7-24.5-11.6
	c0,0,6.5,11.6,8,11.2c0.7-0.2-6.9,3.3-18.9-6.8s-6.6,1.5-12.8,1c-3.4-0.2-9.7-2-9.7-2s6.7,4.2,8.1,4.4c1.4,0.2-13.4,1-17.8,0
	c-6.8-1.5,8.9,3.5,10.8,4.8c0,0-4.8,3.7-22.7,2.9c-18-0.8-0.2-1.5-2.2,7.5c-0.8,3.8,1.8,4.3-0.2,5.8c-2.1,1.5-2.5,3.8-5.1,4.1
	c-0.2,0,2.4,2.5,3.2,1.1c0.8-1.4,1,2.1-3.8,3.7c-4.8,1.6,0,2.2,0,2.2c0.5,0.3-4.8,3.9-7.3,4.1c-2.3,0.3,5.8-0.4,7.1-1.1
	c0.2-0.2,0.3-0.3,0.1-0.1c0,0-0.1,0.1-0.1,0.1c-1.2,1.2-7.5,7.4-12.7,8.6c-6.1,1.4,9.3-1.5,7.3,1.8c-2,3.3-5.4,4.4-5.3,6.9
	c0.2,2.5-4.9,2.5-7.7,2.5c-2.8,0,3.2,0.2,4.3,4.3c1.1,4-3.6,5.8-4,8.9c-0.4,3,4,7,0.3,13.8c-0.6,1.1,5.4-3.4,7.4-3.3
	s-5.5,4.7-6.3,8.3c0,0,2.9-2.2,7.9-2.9c4.9-0.7-5.7,4.5-5.4,9.4c0,0,4-7,6.9,2.4c2.9,9.4,11.7,15.4,2.9,13.8
	c-5.3-1,23.2,12.1,21.6,13.7c-3.4,3.4-25.1,24.5-37,36.1c18.9,20.9,46.2,34,76.6,34c57.1,0,103.4-46.3,103.4-103.4
	C223.4,92.7,212.6,67.7,194.9,49.1z"/>
<path fill="#F5F6F6" d="M198.2,116.1c2.2-1.6,8.1-4.8,8.1-7.7s-4.6-4.4-4.6-4.4l0,0c0,0-3.3-3.2-4.3-4.3c-1.1-1.2-3-4-5.4-6.5
	c-0.2-0.2-0.3-0.3-0.5-0.4c-0.9-0.6-3.6-2.5-3.8-3c-0.6-1.6-1.7-5.8-2.1-6c-0.2-0.1-2,2.8-2.3,2.9c-1.6,0.6-3.9-0.2-3.6,0.2
	c1.4,3.1-1.1,4.8-0.2,6.8c2.4,5.3,0.2,8.6,0.2,8.7l-1.6,3.4c0,0-0.7-4.4-3-5c-1.4-0.4-4.9-1.4-7.7,0.6c-2.2,1.6,4.3-10.3,9.4-13.5
	c0.7-0.5-5.4,2.2-8.7,3.7c-0.4,0.2-0.8-0.3-0.5-0.7l0,0c0.3-0.3-0.1-0.9-0.5-0.7c-0.7,0.3-1.3,0.7-1.8,1l0,0c0,0,1.1-2.2,4.1-3.9
	c0.2-0.2,2-1.2,3-2.2c0.6-0.6,1.3-1,2.1-1.2c1.4-0.4,3.6-1.1,4.8-1.9c1.6-1.2,4-1.1,4-1.1l0,0c-4.8-5.8-5.7-11.6-5.8-14.1
	c0-0.7-0.3-0.9-0.3-0.9c-3.1-3-10.8-7.2-13.1-8.4c-0.9-0.4,2,3.6,1.4,4.4c-1.6,2.1-4,2-3.9,4.3c0.2,3.4-6.1-1-5.5-0.5
	c2.9,2.5-1.6,5.3-1.1,4.7c0.7-0.8-0.6-2.4-0.9-2.6c-3.4-2.5-5.8-6.8-10.9-7c0,0,5.7,3.8,3.1,8c-0.7,1.1-2.4,2-4.4,2
	c-4.7-0.2-9.4-3.8-9.4-3.8c-0.1,3.4,8.1,11.7,9.7,14.2c2.1,3.2-7,1.7-9-0.4c-1.1-1.1,1.2,2.5,2,6.4c0.8,3.9,4.5,8.6,7.2,9.9
	c4.4,2.1,0.7,9.6-3,8.5c-4-1.1-10.5-4.4-10.4-4.2c4,4.9,8.5,10.9,6.6,14.8c-0.3,0.7-1.2-3.9-3.3-4.2c-3.4-0.5-3.1,1.1-5.4,3.4
	c-2.5,2.5-8.7-2.4-9.9-2.8c-1.2-0.4-6.5-0.2-8.9,1.8c-2.4,2.1-7.1,7.9-2.4,15c0.6,0.8,2.1,1.4,2.6,3.7c0.6,2.4,7.5,6.5,9.5,7.5
	c1,0.5,4,1.2,5.1,1c1.1-0.2,1.8-0.2,1.8-0.2l0,0c0,0,3.2,1.8,5.4,1.6c2.2-0.2,4.1-2,4.1-2l0,0c0,0,0.2,5.3-12.4,3
	c-2.4-0.4,2.8,7.9,2.8,7.9l0,0c0,0,1.2,21.3-3.4,27.5s-5.5,3.6-5.5,3.6s-5.5-15.4-10.3-18.6c-7.5-4.9-10.4,2.1-10.4,2.1l0,0
	c0,0,3.9,11.1,5.1,19.1c1.1,8.1,1.1,17.6,1.1,17.6l0,0c0,0,19.3,1,23.1,2.2c4.8,1.6,7.3,4.5,7.9,5.7c5.3,9.8,5.4,11.6,5.6,11.6
	c9.2-1.2,15.7-3.8,15.7-3.8l0-0.3c0,0,0.4-5.3,1.1-11.8c2.3-8,16-33.6,18.9-36.1l0,0c0,0,0.3-6.4,0.5-7.3c0.6-3.5-15.3-2.8-19.7-2.9
	c-4.4-0.1-10.3-4.5-10.8-5.7c0-0.1-0.1-0.2-0.1-0.2c-0.7-1.9,0.8-3.8,2.8-3.9c1,0,2.3,0.2,3.9,0.9c4.7,2.1,11.7,5.4,21.5,5
	c9.8-0.4,21.7-2.1,24.1-3.3c2.5-1.2,6.8-5.3,6.9-7.6c0.1-2-1.9-2.9-1.9-5.5c0-1.5-1.9-2.4-3-2.4c-0.8,0-1.5-0.5-0.9-2.3
	c1.1-3.6,3.4-5.9,3.2-7.3c-0.1-0.4-2.5-1.6-4.4,1c-0.6,0.7-2.5,3-3.2,3.7c-0.2,0.2-0.6,0.2-0.7-0.2l0,0c-0.1-0.9,1.3-2.5,2.9-4.6
	c2.2-2.8,3.8-4.6,3.8-4.6l0,0c0,0,1.6-2.6,0.8-3.3C198.3,119.9,196,117.7,198.2,116.1z M120.5,121.5c-1.6-1.8-1.9-2.4-4-3.5
	c0,0,0,0-0.1,0l-1.9-0.7c-0.5-0.2-0.3-0.8,0.2-0.8c2.1,0.2,5.2,1.3,6.6,6.2L120.5,121.5z M126,133.9c-1.1-0.2,3.8-0.5,3.9-0.8
	c0-0.2-0.1-0.4-0.3-0.7c-0.7-1-0.5-1.2,0.6-0.7c1.1,0.7,2.1,1.4,2.1,1.7C131.9,134.4,129.2,134.2,126,133.9z M188.7,114.6l1.5,0.7
	c0.8,0.4,1.7,0.6,2.6,0.6h0.1l1.7,0.1C189.8,117.2,188.7,114.6,188.7,114.6z M196.6,112.6c-0.4,0.1-0.7-0.4-0.4-0.7
	c0.7-0.8,1.8-1.8,3.1-2c2.2-0.2,2.9,0.7,2.9,0.7l0,0c0,0-1.1,2.1-3,1.6c-0.2,0-0.6,0-0.8,0L196.6,112.6z"/>
<path fill="#F5F6F6" d="M171,98.2c0,0,1.1-3.3,2.8-4.1c1.1-0.5,4.8,2.8,3.9,3.5C176.7,98.5,172.6,99.1,171,98.2z"/>
</svg>
