<?xml version="1.0" encoding="utf-8"?>
<!-- Generator: Adobe Illustrator 18.1.1, SVG Export Plug-In . SVG Version: 6.00 Build 0)  -->
<svg version="1.1" id="Layer_1" xmlns="http://www.w3.org/2000/svg" xmlns:xlink="http://www.w3.org/1999/xlink" x="0px" y="0px"
	 viewBox="0 0 150 150" enable-background="new 0 0 150 150" xml:space="preserve">
<path fill="#6CB8E7" d="M75.8,25.4c5.3-2,11.2,0.7,13.2,5.9l7.2,19c0.8,2.2,1.1,4.5,0.3,6.5c-0.3,0.8-4.9-0.2-8.3,1s-6,5.1-6.9,4.7
	c-1.9-0.8-3.2-2.9-4.1-4.9l-7.2-19C67.8,33.3,70.5,27.3,75.8,25.4z"/>
<path fill="none" stroke="#212121" stroke-miterlimit="10" d="M142.1,150c0,0-31.2-72.3-36.8-85.6C99.6,51,93.9,33.8,89.5,32.8
	l7.1,18.7c0.9,2.5,0.7,5.3-0.8,7.6c-1.1,1.5-2.8,3-5.7,4.2"/>
<path fill="none" stroke="#212121" stroke-miterlimit="10" d="M90.1,63.3c-2.9,1.1-5.2,1.1-6.9,0.7c-2.7-0.7-4.7-2.7-5.7-5.2
	l-7.1-18.7c-2.2,3.5,4.7,19.7,9.7,34.6c5.2,15.2,31.8,75.3,31.8,75.3"/>
<path fill="none" stroke="#212121" stroke-miterlimit="10" d="M80.9,63c0,0,5.4-7.7,15.7-5.9"/>
<path fill="none" stroke="#212121" stroke-miterlimit="10" d="M106.7,79.7c0,0-6.3,7.6-17.3,6.5"/>
<path fill="none" stroke="#212121" stroke-miterlimit="10" d="M105.3,76.1c0,0-6.1,7.5-17.3,6.5"/>
<path fill="none" stroke="#212121" stroke-miterlimit="10" d="M93.2,42.8l-4.3-11.5c-1.3-3.5-4.3-6-8-6.5c-3.6-0.6-7.1,0.8-9.4,3.5
	h-0.1c-2.3,2.8-2.9,6.7-1.6,10.2l4.3,11.4"/>
<path opacity="0.31" fill="#FFFFFF" d="M82.8,59.1L82.8,59.1c-0.9,0.7-1.2,1.1-1.2,1.1l-10.7-28l0,0c0.3-0.6,0.6-1.4,0.9-1.9
	l0.1,0.2L82.8,59.1z"/>
<path opacity="0.31" fill="#FFFFFF" d="M88.1,56.2L88.1,56.2c-0.8,0.3-1.4,0.6-1.4,0.6L75.4,27.1c0.8-0.4,1.4-0.6,1.4-0.6L88.1,56.2
	z"/>
<path opacity="0.31" fill="#FFFFFF" d="M85.8,57.1L85.8,57.1c-1.8,1-2.2,1.4-2.2,1.4L72.5,29.5l0,0c0.3-0.7,2.1-2,2.1-2L85.8,57.1z"
	/>
<path fill="#6CB8E7" d="M108,28L108,28c5.1-2.3,11.2,0,13.5,5.1l8.3,18.5c0.9,2.2,1.4,4.5,0.6,6.4c-0.3,0.8-4.9,0.1-8.2,1.6
	c-3.3,1.5-5.7,5.4-6.7,5.1c-2-0.8-3.4-2.7-4.3-4.7l-8.3-18.5C100.6,36.3,102.8,30.3,108,28z"/>
<path fill="none" stroke="#212121" stroke-miterlimit="10" d="M150,87.4c0,0-3.6-9.4-10.1-22.3c-6.6-13.1-13.3-29.8-17.8-30.6
	l8.2,18.2c1.1,2.4,1,5.3-0.4,7.6c-0.9,1.6-2.6,3.3-5.4,4.5"/>
<path fill="none" stroke="#212121" stroke-miterlimit="10" d="M124.7,64.8c-2.8,1.3-5.1,1.4-6.9,1.1c-2.7-0.5-4.8-2.3-5.9-4.8
	l-8.2-18.2c-2,3.7,5.9,19.3,11.8,33.9c6,14.9,31,73.7,31,73.7"/>
<path fill="none" stroke="#212121" stroke-miterlimit="10" d="M115.6,65.2c0,0,4.9-7.9,15.3-6.9"/>
<path fill="none" stroke="#212121" stroke-miterlimit="10" d="M142.3,80.3c0,0-5.8,7.9-16.8,7.6"/>
<path fill="none" stroke="#212121" stroke-miterlimit="10" d="M140.7,76.8c0,0-5.6,7.8-16.8,7.6"/>
<path fill="none" stroke="#212121" stroke-miterlimit="10" d="M126.5,44.3l-5.1-11.2c-1.5-3.4-4.7-5.7-8.4-6c-3.6-0.4-7,1.2-9.2,4.1
	h-0.1c-2.2,3-2.5,6.8-1,10.3l5,11.2"/>
<path opacity="0.31" fill="#FFFFFF" d="M117.2,61.2L117.2,61.2c-0.8,0.7-1.1,1.1-1.1,1.1L103.6,35l0,0c0.2-0.6,0.4-1.4,0.7-1.9v0
	L117.2,61.2z"/>
<path opacity="0.31" fill="#FFFFFF" d="M122.1,57.5l0.2,0.5c-0.8,0.3-1.3,0.6-1.3,0.6l-13.2-28.9c0.7-0.4,1.4-0.7,1.4-0.7
	L122.1,57.5z"/>
<path opacity="0.31" fill="#FFFFFF" d="M120.1,59L120.1,59c-1.7,1.1-2,1.4-2,1.4l-12.6-27.6l-0.3-0.8c0.9-1.1,1.9-1.8,1.9-1.8
	L120.1,59z"/>
<path fill="#6CB8E7" stroke="#212121" stroke-miterlimit="10" d="M55.5,57.3L55.5,57.3c5.3-2,11.2,0.7,13.1,6l7.1,19
	c0.8,2.2,1.1,4.6,0.2,6.4c-0.3,0.8-4.9-0.2-8.3,1.1s-6,5.1-7,4.7c-2-0.8-3.2-2.9-4-4.9l-7.1-19C47.5,65.2,50.2,59.3,55.5,57.3z"/>
<path fill="none" stroke="#212121" stroke-miterlimit="10" d="M108.1,150.5c0,0-17.6-40.8-23.2-54.1C79.2,83,73.6,65.8,69.2,64.8
	l7,18.7c0.9,2.5,0.7,5.3-0.8,7.6c-1.1,1.6-2.8,3.1-5.7,4.2"/>
<path fill="none" stroke="#212121" stroke-miterlimit="10" d="M69.7,95.2c-2.9,1.1-5.2,1.1-7,0.7c-2.7-0.7-4.7-2.7-5.6-5.2l-7-18.7
	c-2.2,3.6,4.6,19.7,9.6,34.7c5.1,15.3,17.8,44.3,17.8,44.3"/>
<path fill="none" stroke="#212121" stroke-miterlimit="10" d="M60.5,94.9c0,0,5.5-7.7,15.7-5.9"/>
<path fill="none" stroke="#212121" stroke-miterlimit="10" d="M86.2,111.7c0,0-6.3,7.6-17.3,6.4"/>
<path fill="none" stroke="#212121" stroke-miterlimit="10" d="M84.8,108.1c0,0-6.1,7.5-17.3,6.4"/>
<path fill="none" stroke="#212121" stroke-miterlimit="10" d="M72.8,74.8l-4.3-11.5c-1.3-3.5-4.3-5.9-8-6.6c-3.5-0.6-7,0.8-9.4,3.5
	h0c-2.4,2.9-3,6.7-1.7,10.2l4.3,11.5"/>
<path opacity="0.31" fill="#FFFFFF" d="M62.8,90.8L62.8,90.8c-0.8,0.7-1.2,1-1.2,1L50.9,63.5l0,0c0.3-0.6,0.6-1.1,1-1.6v0L62.8,90.8
	z"/>
<path opacity="0.31" fill="#FFFFFF" d="M67.5,87.6l0.2,0.5c-0.8,0.3-1.4,0.5-1.4,0.5L55,59.2c0.8-0.4,1.4-0.5,1.4-0.5L67.5,87.6z"/>
<path opacity="0.31" fill="#FFFFFF" d="M65.6,89L65.6,89c-1.8,0.9-2.2,1.3-2.2,1.3L52.6,62.2l-0.3-0.9c0.9-1,2.1-1.7,2.1-1.7
	L65.6,89z"/>
<path fill="#6CB8E7" d="M38,96.4L38,96.4c5.3-2,11.2,0.7,13.1,6l7.1,19c0.8,2.2,1.1,4.6,0.2,6.4c-0.3,0.8-4.9-0.2-8.3,1.1
	c-3.4,1.3-6,5.1-7,4.6c-2-0.9-3.2-2.9-4-4.9l-7.1-19C30,104.3,32.8,98.4,38,96.4z"/>
<path fill="none" stroke="#212121" stroke-miterlimit="10" d="M73.5,150c0,0-0.4-1.2-6.1-14.4c-5.7-13.4-11.3-30.7-15.8-31.7l7,18.7
	c1,2.5,0.7,5.3-0.8,7.6c-1,1.6-2.8,3.1-5.7,4.1"/>
<path fill="none" stroke="#212121" stroke-miterlimit="10" d="M52.2,134.3c-2.9,1.1-5.2,1.1-7,0.6c-2.7-0.7-4.7-2.6-5.6-5.2l-7-18.7
	c-2.2,3.6,6.3,24.5,11.3,39.4"/>
<path fill="none" stroke="#212121" stroke-miterlimit="10" d="M43.1,134.1c0,0,5.5-7.7,15.7-5.9"/>
<path fill="none" stroke="#212121" stroke-width="3" stroke-miterlimit="10" d="M51.5,157.3"/>
<path fill="none" stroke="#212121" stroke-width="3" stroke-miterlimit="10" d="M68.8,150.9"/>
<path fill="none" stroke="#212121" stroke-width="3" stroke-miterlimit="10" d="M50.1,153.7"/>
<path fill="none" stroke="#212121" stroke-width="3" stroke-miterlimit="10" d="M67.4,147.3"/>
<path fill="none" stroke="#212121" stroke-miterlimit="10" d="M55.4,113.9l-4.3-11.5c-1.3-3.5-4.3-5.9-8-6.6c-3.5-0.6-7,0.8-9.4,3.5
	h0c-2.4,2.8-3,6.7-1.7,10.2l4.3,11.5"/>
<path opacity="0.31" fill="#FFFFFF" d="M45.2,129.8L45.2,129.8c-0.9,0.6-1.2,1-1.2,1l-10.8-27.4l0,0c0.3-0.5,0.5-1.1,0.9-2l0-0.1
	L45.2,129.8z"/>
<path opacity="0.31" fill="#FFFFFF" d="M50.4,126.6l0.2,0.5c-0.8,0.3-1.4,0.5-1.4,0.5L37.7,98.1c0.8-0.4,1.4-0.5,1.4-0.5L50.4,126.6
	z"/>
<path opacity="0.31" fill="#FFFFFF" d="M48.5,128L48.5,128c-1.8,0.9-2.2,1.3-2.2,1.3l-11-28.3l-0.3-0.8c0.9-1,2.1-1.8,2.1-1.8
	L48.5,128z"/>
</svg>
