<?xml version="1.0" encoding="utf-8"?>
<!-- Generator: Adobe Illustrator 18.1.1, SVG Export Plug-In . SVG Version: 6.00 Build 0)  -->
<svg version="1.1" id="Layer_1" xmlns="http://www.w3.org/2000/svg" xmlns:xlink="http://www.w3.org/1999/xlink" x="0px" y="0px"
	 viewBox="0 0 300 300" enable-background="new 0 0 300 300" xml:space="preserve">
<path fill="none" stroke="#212121" stroke-width="3" stroke-miterlimit="10" d="M320,90.8c0,0-31.9,20.1-154.4,45.7
	c-0.2,0-0.9,0.9-1.8,2.1c-4.8,6.9-14.1,9.8-29.1,11c0.2,2.7,8.5,10.7,22.9,11c21.9,0.4,24.9-1.1,25.3-1.5c0.1-0.1,0.2-0.1,0.3-0.1
	c3.5-0.4,51.1-5.2,63-5.1c1.4,0,2.2,0.1,2.6,0.3c3.2,1.6-66.9,26.9-66.9,26.9l7,8.1v5.4l4.9,4.8l1.6,4.8c0,0,21.6-6.4,64.7-14
	c43.1-7.5,55-18.3,55-18.3l25.1-4.8l-6.8,26.9c0,0-31.3-1.6-48.5-0.5c-17.3,1.1-31.3,14.5-33.4,16.6c-2.2,2.1-9.7,14,1.6,18.3l5.3,2
	c3.9,1.5,8.1,2.1,12.3,1.7c11.8-1,38.1-3,59.5-2.6c28.6,0.5,117-37.6,117-37.6L434.2,24.2L380,52.3L277.5,37.6l-46.9-8.8
	c-1.1,1.1-5.5,4.9-7.6,4.5c-5.9-1.1-17.8-4.8-17.8-4.8s-11.3,12.9,35,23.1c43,11.3,44.9,15.3,53,18.8c0.9,0.2,12,0.9,25.7,0.4
	c2-0.1,4-0.1,5.9-0.2c16.2-0.6,32.4-1.3,32.4-1.3l-9.7,8.1L320,74.1l-37.2-3.2c0,0-12.3-1.2-25.2-1.2c-12.9,0-26,1.7-33,3.9
	c-6.3,1.9-29.5,2.1-46.2,4.7c-0.4,0.1-6.4,9.7-9.9,10.9c-6.5,2.1-21.6-0.5-21.6-0.5s3.8,11.3,24.3,12.9c20.5,1.6,41-0.5,60.9-1.1
	c19.9-0.5,40.8,3.6,49.6,6"/>
<path fill="none" stroke="#212121" stroke-width="3" stroke-miterlimit="10" d="M107.8,15.6"/>
<path fill="none" stroke="#212121" stroke-width="3" stroke-miterlimit="10" d="M248.9,154.1c0,0,65.8-19.6,82.4-34.8"/>
<path fill="#6CB8E7" stroke="#212121" stroke-width="3" stroke-miterlimit="10" d="M147.5,89.8c0,0-9.1-7.9-1.6-10.8
	c7.5-3,31.2,0,31.2,0s-4.4,10.5-9.6,11.3C162.2,91,150.9,91.9,147.5,89.8z"/>
<path fill="none" stroke="#212121" stroke-width="3" stroke-miterlimit="10" d="M250.3,211.6c0,0,21.2-10.7,32.4,0
	c3.8,3.6,2.5,7.6,2.1,8.5c-2.1,4.9-7,8-12.3,8.4c-4.2,0.3-10.5,0.4-19.3-0.2"/>
<path fill="#6CB8E7" stroke="#212121" stroke-width="3" stroke-miterlimit="10" d="M134.8,149.6c0,0-6.1-4-5.8-5.6
	c0.4-1.6,1.8-4,14-5.1c12.5-1.1,12-1.1,21.3-1C164.4,137.9,157.9,148.6,134.8,149.6z"/>
<path fill="#6CB8E7" stroke="#212121" stroke-width="3" stroke-miterlimit="10" d="M206,29.1c0,0-4.8-6,2.1-6.3
	c6.9-0.3,21.8,6.6,21.8,6.6l-7.6,3.5C222.3,32.9,208.9,30.9,206,29.1z"/>
<path fill="none" stroke="#212121" stroke-width="3" stroke-miterlimit="10" d="M0,154.1c0,0,23.9,6.3,22.8,18.8"/>
<path fill="none" stroke="#212121" stroke-width="3" stroke-miterlimit="10" d="M0,173.2c0,0,38.2-5,62,23.1"/>
<path fill="none" stroke="#212121" stroke-width="3" stroke-miterlimit="10" d="M0,205.3c0,0,36.4-16.3,61.6-9.1
	c17.8,5.1,27,17.2,27,17.2"/>
<path fill="none" stroke="#212121" stroke-width="3" stroke-miterlimit="10" d="M0,252.7c0,0,52.4-36.5,88.5-38.1
	c26.9-1.2,26.9,4,26.9,4c0.1,1.1,0.7,4.8,3.8,7.2c3.4,2.7,8.8,3,10,1.1c0.9-1.4-0.6-4.2-2.2-5.6c-1-1-2.1-1.4-3.2-1.9
	c-3-1.3-6.1-0.1-6.6-1.2c-0.3-0.6,1.7-1.6,2-4.2c0.2-1.5,0.3-2.3,0-2.7c-1-1.2-4.3,1.2-5.4,0.3c-0.9-0.7-0.5-3.4,3.5-10.7"/>
<path fill="none" stroke="#212121" stroke-width="3" stroke-miterlimit="10" d="M0,297.3c0,0,76.1-44.4,92.2-49.2
	s27.9-2.3,42.6-14.2c3.7-3-5.7-7-5.7-7"/>
<path fill="none" stroke="#212121" stroke-width="3" stroke-miterlimit="10" d="M155.6,240.1h-5.1c0,0-5.1-6.2-8.4-5.6
	s-7.3-0.5-7.3-0.5"/>
<line fill="none" stroke="#212121" stroke-width="3" stroke-miterlimit="10" x1="21" y1="301" x2="66.8" y2="260"/>
<path fill="none" stroke="#212121" stroke-width="3" stroke-miterlimit="10" d="M72.7,300c0,0,21.2-21,32.8-30.1l5.7-5.2
	c0.7-0.6,1.3-1.4,1.9-2.2c2.1-3,2.1-3.2,2.1-5.5l0,0l-4-2.4l-5.4-3.2l-3.2-3l-1-2.5"/>
<path fill="none" stroke="#212121" stroke-width="3" stroke-miterlimit="10" d="M92.5,213.4c0,0-0.3-8.4,1.9-9.8
	c2.2-1.4-1-6.4,1.3-7.3s4.1-7.8,4.9-8.6c0.8-0.8,5.4-0.2,7-2.9c1.6-2.7,4-5.7,5.1-7.3c1.1-1.6,12.1-7,12.9-9.7
	c0.8-2.7,5.4,0.3,9.2,0s9.2,0.8,13.2,0.8c4,0,7.3,3.2,9.2,4.3c1.9,1.1,2.8,1.9,7.2,3c4.4,1.1,4.4,1.1,4.4,1.1s3,3,4.9,5.4
	s3,5.1,4.9,5.9c1.9,0.8,4.3,6.3,5.1,8.1c0.8,1.8,3.8,4.4,3.8,7.3c0,2.9,1.1,5,0,8.5c-1.1,3.5,3.2,4.8,3.2,4.8s0.3,4.6-2.7,7
	c-3,2.4-0.3,9.4-0.8,9.9c-0.5,0.5-4,8.1-2.2,8.1c1.9,0-4.6,3.2-7,6.4c-2.4,3.2-5.7,6.7-5.7,6.7s-4.9,0.8-7,3.9
	c-2.2,3.1-6.2-1.2-12.1,2c-5.9,3.2-7.5,4.3-10.2,4c-2.7-0.3-4.9-1.1-8.1-1.1s-4.6-0.3-9.4-0.3s-11.7-1.7-11.7-1.7"/>
<path fill="none" stroke="#212121" stroke-width="3" stroke-miterlimit="10" d="M153.8,170.6c0,0,7.7-2,9.3-0.4
	c1.6,1.6,7.3,3.5,8.6,4.3s5.4,3.2,6.2,3.2c0.8,0,10.4,6.4,8.8,8.7c-1.6,2.3,3.8,7.4,3.8,7.4s3.4,6,3.8,7c0.4,1,1.9,6,1.9,6
	s-2.7,3.7-2.4,4.8c0.3,1.1,4.3,4.3,4.3,4.3l-1.9,3.5c0,0-2.2,6.1,1.9,9.4c4,3.3-5.4,3.5-4.3,11.3c1.1,7.8-1.3,1.9-3.2,2.4
	c-1.9,0.5-6.5,10.2-8.4,12.9c-1.9,2.7-6.7,3.2-8.1,3.6c-1.3,0.4-6.2,5.8-7.8,6.1c-1.6,0.2-9.7-0.2-10.8,1.2
	c-1.1,1.4-2.2,3.6-2.7,3.6s-4.3,0.5-9.2,0c-4.9-0.5-11-3.4-14.7-4.8c-3.7-1.4-3.7-1.4-3.7-1.4"/>
</svg>
