<?xml version="1.0" encoding="utf-8"?>
<!-- Generator: Adobe Illustrator 18.1.1, SVG Export Plug-In . SVG Version: 6.00 Build 0)  -->
<svg version="1.1" xmlns="http://www.w3.org/2000/svg" xmlns:xlink="http://www.w3.org/1999/xlink" x="0px" y="0px"
	 viewBox="0 0 300 300" enable-background="new 0 0 300 300" xml:space="preserve">
<g id="Layer_1" display="none">
	<path display="inline" fill="none" stroke="#212121" stroke-width="3" stroke-miterlimit="10" d="M300.4,275
		c0,0-174.3-27.2-233.2-37.8c-22.1-3.9-19-26.2-16.6-33.7"/>
	<path display="inline" fill="none" stroke="#212121" stroke-width="3" stroke-miterlimit="10" d="M300.4,218.4L78.3,180.9
		c-5.8-1-11.8,0-16.6,3.3c-4.8,3-9.4,8.6-11.1,18.6c-1.2,6.3,1,11.5,4,15.7c4.3,6.1,11,9.9,18.2,11.4
		c55.9,11.1,227.7,36.8,227.7,36.8"/>
	<path display="inline" fill="#69B8E7" d="M122.7,214L122.7,214c-15.7-2.7-26.4-17.9-23.5-33.6l10.1-56.8c1.2-6.5,3.9-12.7,8.8-16.1
		c2-1.4,11.7,7.6,21.8,9.4c10.1,1.9,22.1-3.7,23.8-1.3c3.5,4.9,3.7,11.7,2.7,18l-10.1,56.8C153.6,206.3,138.4,216.8,122.7,214z"/>
	<path display="inline" fill="none" stroke="#212121" stroke-width="3" stroke-miterlimit="10" d="M114.9,0c0,0-28.2,151.3-15,176
		l9.8-55.9c1.3-7.5,6.1-14.1,13.1-17.4c4.8-2.3,11.2-3.5,19.9-1.9"/>
	<path display="inline" fill="none" stroke="#212121" stroke-width="3" stroke-miterlimit="10" d="M142.6,100.7
		c8.6,1.6,14.3,4.8,18,8.5c5.5,5.5,7.6,13.3,6.3,20.8l-9.8,55.9C178,167.5,205.1,0,205.1,0"/>
	<path display="inline" fill="none" stroke="#212121" stroke-width="3" stroke-miterlimit="10" d="M164.5,114.4
		c0,0-24.4,10.8-47-8.2"/>
	<path display="inline" fill="none" stroke="#212121" stroke-width="3" stroke-miterlimit="10" d="M129.1,21.3
		c0,0,26.4-9.4,51.7,9.1"/>
	<path display="inline" fill="none" stroke="#212121" stroke-width="3" stroke-miterlimit="10" d="M127.2,32.1
		c0,0,25.8-9.5,51.7,9.1"/>
	<path display="inline" fill="none" stroke="#212121" stroke-width="3" stroke-miterlimit="10" d="M105.3,146.1l-6.1,34.4
		c-1.9,10.4,2,20.8,10.1,27.5l0,0c7.8,6.5,18.4,8.4,28.1,5h0.1c9.9-3.5,16.9-12.1,18.7-22.5l6.1-34.3"/>
</g>
<g id="Layer_2">
	<path fill="none" stroke="#212121" stroke-width="3" stroke-miterlimit="10" d="M174.6,165.7l5.8-32.9c1.8-9.9-1.9-19.8-9.6-26.3
		l0,0c-7.4-6.2-17.6-8-26.8-4.8h-0.1c-9.5,3.3-16.1,11.5-17.9,21.4l-5.8,32.7"/>
	<path fill="none" stroke="#212121" stroke-width="3" stroke-miterlimit="10" d="M151.9,284.7c0,0-25.2,8.9-49.3-8.7"/>
	<path fill="none" stroke="#212121" stroke-width="3" stroke-miterlimit="10" d="M153.7,274.4c0,0-24.6,9.1-49.3-8.7"/>
	<path fill="none" stroke="#212121" stroke-width="3" stroke-miterlimit="10" d="M166.3,300c0,0,26-139.3,13.4-162.8l-9.3,53.3
		c-1.2,7.1-5.8,13.5-12.5,16.6c-4.5,2.2-10.7,3.3-19,1.8"/>
	<path fill="none" stroke="#212121" stroke-width="3" stroke-miterlimit="10" d="M139,209c-8.2-1.5-13.6-4.5-17.2-8.1
		c-5.2-5.2-7.3-12.6-6-19.8l9.3-53.3C105.2,145.4,80.3,300,80.3,300"/>
	<path fill="none" stroke="#212121" stroke-width="3" stroke-miterlimit="10" d="M118.1,195.9c0,0,23.2-10.3,44.8,7.8"/>
	<path fill="none" stroke="#212121" stroke-width="3" stroke-miterlimit="10" d="M160.3-0.5l-8.9,50.5c0,0.1,0,0.2,0.1,0.1
		c8.9-4.7,19.8-2.8,26.5,4.7c0.1,0.1,0.4,0.1,0.4-0.1l10.1-55.3"/>
	<path fill="#69B8E7" stroke="#212121" stroke-width="3" stroke-miterlimit="10" d="M145.7,108l0.4,0.5c4.3,6.5,12.4,7.6,18.4,2.4
		c2.9-2.5,3.4,0.1,3.2-4l-0.9-17.2c-0.6-11.8,3.4-26.3,11-34.5l0,0c-6.4-7.7-17.4-9.7-26.1-4.6l0,0c5.7,9.8,4.5,25.8-0.8,36.8
		l-7,14.4C141.9,106.1,143.3,104.4,145.7,108z"/>
</g>
</svg>
