<?xml version="1.0" encoding="utf-8"?>
<!-- Generator: Adobe Illustrator 18.1.1, SVG Export Plug-In . SVG Version: 6.00 Build 0)  -->
<svg version="1.1" id="Layer_1" xmlns="http://www.w3.org/2000/svg" xmlns:xlink="http://www.w3.org/1999/xlink" x="0px" y="0px"
	 viewBox="0 0 300 300" enable-background="new 0 0 300 300" xml:space="preserve">
<path fill="none" stroke="#212121" stroke-width="3" stroke-miterlimit="10" d="M300.4,275c0,0-174.3-27.2-233.2-37.8
	c-22.1-3.9-19-26.2-16.6-33.7"/>
<path fill="none" stroke="#212121" stroke-width="3" stroke-miterlimit="10" d="M300.4,218.4L78.3,180.9c-5.8-1-11.8,0-16.6,3.3
	c-4.8,3-9.4,8.6-11.1,18.6c-1.2,6.3,1,11.5,4,15.7c4.3,6.1,11,9.9,18.2,11.4c55.9,11.1,227.7,36.8,227.7,36.8"/>
<path fill="#69B8E7" d="M122.7,214L122.7,214c-15.7-2.7-26.4-17.9-23.5-33.6l10.1-56.8c1.2-6.5,3.9-12.7,8.8-16.1
	c2-1.4,11.7,7.6,21.8,9.4c10.1,1.9,22.1-3.7,23.8-1.3c3.5,4.9,3.7,11.7,2.7,18l-10.1,56.8C153.6,206.3,138.4,216.8,122.7,214z"/>
<path fill="none" stroke="#212121" stroke-width="3" stroke-miterlimit="10" d="M114.9,0c0,0-28.2,151.3-15,176l9.8-55.9
	c1.3-7.5,6.1-14.1,13.1-17.4c4.8-2.3,11.2-3.5,19.9-1.9"/>
<path fill="none" stroke="#212121" stroke-width="3" stroke-miterlimit="10" d="M142.6,100.7c8.6,1.6,14.3,4.8,18,8.5
	c5.5,5.5,7.6,13.3,6.3,20.8l-9.8,55.9c20.9-18.4,48-185.9,48-185.9"/>
<path fill="none" stroke="#212121" stroke-width="3" stroke-miterlimit="10" d="M164.5,114.4c0,0-24.4,10.8-47-8.2"/>
<path fill="none" stroke="#212121" stroke-width="3" stroke-miterlimit="10" d="M129.1,21.3c0,0,26.4-9.4,51.7,9.1"/>
<path fill="none" stroke="#212121" stroke-width="3" stroke-miterlimit="10" d="M127.2,32.1c0,0,25.8-9.5,51.7,9.1"/>
<path fill="none" stroke="#212121" stroke-width="3" stroke-miterlimit="10" d="M105.3,146.1l-6.1,34.4c-1.9,10.4,2,20.8,10.1,27.5
	l0,0c7.8,6.5,18.4,8.4,28.1,5h0.1c9.9-3.5,16.9-12.1,18.7-22.5l6.1-34.3"/>
</svg>
