<?xml version="1.0" encoding="utf-8"?>
<!-- Generator: Adobe Illustrator 18.1.1, SVG Export Plug-In . SVG Version: 6.00 Build 0)  -->
<svg version="1.1" xmlns="http://www.w3.org/2000/svg" xmlns:xlink="http://www.w3.org/1999/xlink" x="0px" y="0px"
	 viewBox="0 0 300 100" enable-background="new 0 0 300 100" xml:space="preserve">
<g id="Шар_1">
</g>
<g id="Шар_2">
	<g>
		<g>
			<path fill="#FFFFFF" d="M29.6,51c2.2-6.5,10.6-9.2,16.8-10.5c7.2-1.5,14.4-1.6,16.6,6.8c2.1,7.9,3.3,17,11.6,20.8
				c8.6,4,19.4-0.1,27.8-2.6c11.7-3.5,23.1-7.7,34.2-12.6c1.8-0.8,0.2-3.4-1.5-2.6c-12.9,5.6-26.2,10.3-39.7,14
				c-5.6,1.6-12,3.4-17.8,1.6c-6.7-2.1-9-8.6-10.6-14.8c-1-4-1.4-8.7-4.6-11.7c-3-2.7-7.5-3.1-11.3-2.8c-8.7,0.7-21.3,4.1-24.3,13.4
				C26.1,52.1,29,52.8,29.6,51L29.6,51z"/>
		</g>
	</g>
	<g>
		<g>
			<path fill="#FFFFFF" d="M54.2,27.3c-2.6,4.5-4.4,9.2-5.1,14.4c-0.4,2.9-1.4,7.7,1.8,9.3c1.6,0.8,3.9,0.2,5.6,0.2
				c3.3-0.1,6.6-0.4,9.8-0.7c6.7-0.6,13.4-1.6,20-2.5c1.9-0.3,1.1-3.2-0.8-2.9c-9.3,1.3-18.7,2.6-28.1,3.1c-1.5,0.1-4.5,0.8-5.6-0.4
				c-0.6-0.7,0.1-4.4,0.2-5.1c0.5-4.9,2.3-9.5,4.8-13.7C57.8,27.1,55.2,25.6,54.2,27.3L54.2,27.3z"/>
		</g>
	</g>
	<g>
		<g>
			<path fill="none" stroke="#000000" stroke-miterlimit="10" d="M106,12.7"/>
		</g>
	</g>
	<g>
		<g>
			<path fill="none" stroke="#000000" stroke-width="5" stroke-miterlimit="10" d="M17.7,39.3"/>
		</g>
	</g>
	<g>
		<g>
			<path fill="none" stroke="#000000" stroke-width="2" stroke-miterlimit="10" d="M294.7,51"/>
		</g>
	</g>
	<g>
		<g>
			<path fill="none" stroke="#000000" stroke-width="2" stroke-miterlimit="10" d="M9.7,47"/>
		</g>
	</g>
	<g>
		<g>
			<path fill="none" stroke="#000000" stroke-width="3" stroke-miterlimit="10" d="M313-63.7"/>
		</g>
	</g>
	<g>
		<g>
			<path d="M5.8,89.3c81.4,0,162.9,0,244.3,0c3.1,0,8.5-8.7,9.3-9.8c6.2-8.5,11.8-17.8,17.1-26.9c5.3-9.2,10.6-18.5,14.8-28.2
				c0.5-1.1,5.4-13,3.8-13c-81.4,0-162.9,0-244.3,0c-3.1,0-8.5,8.7-9.3,9.8c-6.2,8.5-11.8,17.8-17.1,26.9
				c-5.3,9.2-10.6,18.5-14.8,28.2C9.2,77.4,4.3,89.3,5.8,89.3L5.8,89.3z"/>
		</g>
	</g>
</g>
</svg>
