<?xml version="1.0" encoding="utf-8"?>
<!-- Generator: Adobe Illustrator 18.1.1, SVG Export Plug-In . SVG Version: 6.00 Build 0)  -->
<svg version="1.1" xmlns="http://www.w3.org/2000/svg" xmlns:xlink="http://www.w3.org/1999/xlink" x="0px" y="0px"
	 viewBox="0 0 75 75" enable-background="new 0 0 75 75" xml:space="preserve">
<g id="Layer_1">
	<path fill-rule="evenodd" clip-rule="evenodd" fill="#212121" d="M27.6,13.3c-1.2,0.7-2.1,1.8-2.6,3c-0.9,2.4-2,7.2-2,16.4l4.6,0.4
		L27.6,13.3L27.6,13.3z"/>
	<path fill-rule="evenodd" clip-rule="evenodd" fill="#212121" d="M47.2,13.3c1.2,0.7,2.1,1.8,2.6,3c0.9,2.4,2,7.2,2,16.4l-4.6,0.4
		V13.3L47.2,13.3z"/>
	<path fill-rule="evenodd" clip-rule="evenodd" fill="#333333" d="M28.7,33.2V11.1c0-5.9,5.7-10.2,11.3-8.4c0.2,0.1,0.4,0.1,0.6,0.2
		c3.3,1.3,5.5,4.6,5.5,8.1v22.1"/>
	<g>
		<path fill="#212121" d="M47.2,32.4c0,5.4-3.3,10.3-9.8,10.3c-6.1,0-9.8-4.4-9.8-10.3h-4.6v25.5c0,8,6.5,14.5,14.5,14.5h0
			c8,0,14.5-6.5,14.5-14.5V32.4H47.2z"/>
		<path fill="#333333" d="M40,40.9c0.2-0.1,0.4-0.1,0.6-0.2c3.1-1.2,5.3-4.2,5.5-7.5c0-0.2-0.1-0.4-0.1-0.6V20H29v12.5
			c0,0.2-0.3,0.4-0.3,0.7C29.1,38.7,34.6,42.7,40,40.9z"/>
	</g>
</g>
<g id="Layer_2" opacity="0.25">
	<polygon opacity="0.7" fill="#FFFFFF" points="37.5,6.4 30,15.4 35.1,15.4 35.1,35.5 37.5,31.1 	"/>
	<polygon opacity="0.7" fill="#FFFFFF" points="37.5,6.4 45,15.4 39.9,15.4 39.9,35.5 37.5,31.1 	"/>
</g>
</svg>
