<?xml version="1.0" encoding="utf-8"?>
<!-- Generator: Adobe Illustrator 18.1.1, SVG Export Plug-In . SVG Version: 6.00 Build 0)  -->
<svg version="1.1" id="Layer_1" xmlns="http://www.w3.org/2000/svg" xmlns:xlink="http://www.w3.org/1999/xlink" x="0px" y="0px"
	 viewBox="0 0 260 315.9" enable-background="new 0 0 260 315.9" xml:space="preserve">
<path fill="#252525" d="M255,0H5C2.2,0,0,2.3,0,5v160c0,2.8,2.3,5,5,5h93.9l-3.6,22.6L85,196v4h45h45v-4l-10.3-3.4l-3.6-22.6H255
	c2.8,0,5-2.3,5-5V5C260,2.3,257.8,0,255,0z M130,157.8c-3.3,0-6-2.7-6-6s2.7-6,6-6s6,2.7,6,6S133.3,157.8,130,157.8z M245,138H15V14
	h230V138z"/>
<path fill="#252525" d="M0.6,214.8v96.3c0,2.6,2.2,4.8,4.8,4.8h120.4c2.6,0,4.8-2.2,4.8-4.8v-96.3c0-2.6-2.2-4.8-4.8-4.8H5.4
	C2.7,210,0.6,212.2,0.6,214.8z M126.4,263c0,2.1-1.7,3.9-3.9,3.9c-2.1,0-3.9-1.7-3.9-3.9s1.7-3.9,3.9-3.9
	C124.7,259.1,126.4,260.9,126.4,263z M115.2,219.6v86.7h-104v-86.7H115.2z"/>
<path fill="#252525" d="M252.9,235.9h-30.7c-3.7,0-6.7,3-6.7,6.7v66.7c0,3.7,3,6.7,6.7,6.7h30.7c3.7,0,6.7-3,6.7-6.7v-66.7
	C259.6,238.9,256.6,235.9,252.9,235.9z M237.6,312.1c-2.2,0-4-1.8-4-4s1.8-4,4-4s4,1.8,4,4S239.8,312.1,237.6,312.1z M254.3,299.9
	h-33.3v-53.3h33.3V299.9z"/>
</svg>
