<?xml version="1.0" encoding="utf-8"?>
<!-- Generator: Adobe Illustrator 18.1.1, SVG Export Plug-In . SVG Version: 6.00 Build 0)  -->
<svg version="1.1" id="Layer_1" xmlns="http://www.w3.org/2000/svg" xmlns:xlink="http://www.w3.org/1999/xlink" x="0px" y="0px"
	 viewBox="0 0 423 200" enable-background="new 0 0 423 200" xml:space="preserve">
<path fill="#333333" d="M255,0H5C2.2,0,0,2.3,0,5v160c0,2.8,2.3,5,5,5h93.9l-3.6,22.6L85,196v4h45h45v-4l-10.3-3.4l-3.6-22.6H255
	c2.8,0,5-2.3,5-5V5C260,2.3,257.8,0,255,0z M130,157.8c-3.3,0-6-2.7-6-6s2.7-6,6-6s6,2.7,6,6S133.3,157.8,130,157.8z M245,138H15V14
	h230V138z"/>
<path fill="#333333" d="M375,65H275c-2.8,0-5,2.3-5,5v125c0,2.8,2.3,5,5,5h100c2.8,0,5-2.3,5-5V70C380,67.3,377.8,65,375,65z
	 M325,195.7c-2.2,0-4-1.8-4-4c0-2.2,1.8-4,4-4s4,1.8,4,4C329,193.9,327.2,195.7,325,195.7z M370,184h-90V76h90V184z"/>
<path fill="#333333" d="M418,140h-23c-2.8,0-5,2.3-5,5v50c0,2.8,2.3,5,5,5h23c2.8,0,5-2.3,5-5v-50C423,142.3,420.8,140,418,140z
	 M406.5,197.1c-1.7,0-3-1.3-3-3s1.3-3,3-3s3,1.3,3,3S408.2,197.1,406.5,197.1z M419,188h-25v-40h25V188z"/>
</svg>
