<?xml version="1.0" encoding="utf-8"?>
<!-- Generator: Adobe Illustrator 18.1.1, SVG Export Plug-In . SVG Version: 6.00 Build 0)  -->
<svg version="1.1" xmlns="http://www.w3.org/2000/svg" xmlns:xlink="http://www.w3.org/1999/xlink" x="0px" y="0px"
	 viewBox="0 0 341.2 200" enable-background="new 0 0 341.2 200" xml:space="preserve">
<g id="Layer_1">
	<path fill="#434343" d="M255-0.3H5c-2.8,0-5,2.3-5,5v160c0,2.8,2.3,5,5,5h93.9l-3.6,22.6L85,195.6v4h45h45v-4l-10.3-3.4l-3.6-22.6
		H255c2.8,0,5-2.3,5-5V4.7C260,1.9,257.8-0.3,255-0.3z M130,157.5c-3.3,0-6-2.7-6-6s2.7-6,6-6s6,2.7,6,6S133.3,157.5,130,157.5z
		 M245,137.7H15v-124h230V137.7z"/>
	<path fill="#434343" d="M294.3,64.7h-100c-2.8,0-5,2.3-5,5v125c0,2.8,2.3,5,5,5h100c2.8,0,5-2.3,5-5v-125
		C299.3,66.9,297.1,64.7,294.3,64.7z M244.3,195.4c-2.2,0-4-1.8-4-4c0-2.2,1.8-4,4-4s4,1.8,4,4C248.3,193.6,246.5,195.4,244.3,195.4
		z M289.3,183.7h-90v-110h90V183.7z"/>
	<path fill="#434343" d="M336.2,139.7h-23c-2.8,0-5,2.3-5,5v50c0,2.8,2.3,5,5,5h23c2.8,0,5-2.3,5-5v-50
		C341.2,141.9,338.9,139.7,336.2,139.7z M324.6,197.9c-1.7,0-3-1.3-3-3s1.3-3,3-3s3,1.3,3,3S326.2,197.9,324.6,197.9z M337.2,187.7
		h-25v-40h25V187.7z"/>
</g>
<g id="Layer_2" display="none">
	
		<text transform="matrix(1 0 0 1 21.3333 44.3335)" display="inline" fill="#434343" font-family="'MyriadPro-Regular'" font-size="36">230х124</text>
	<text transform="matrix(1 0 0 1 203 91)" display="inline"><tspan x="0" y="0" fill="#434343" font-family="'MyriadPro-Regular'" font-size="18">90 </tspan><tspan x="0" y="21.6" fill="#434343" font-family="'MyriadPro-Regular'" font-size="18">  х </tspan><tspan x="0" y="43.2" fill="#434343" font-family="'MyriadPro-Regular'" font-size="18">110</tspan></text>
	<text transform="matrix(1 0 0 1 317.333 158.333)" display="inline"><tspan x="0" y="0" fill="#434343" font-family="'MyriadPro-Regular'" font-size="14">25 </tspan><tspan x="0" y="14" fill="#434343" font-family="'MyriadPro-Regular'" font-size="14"> х </tspan><tspan x="0" y="28" fill="#434343" font-family="'MyriadPro-Regular'" font-size="14">40</tspan></text>
</g>
</svg>
