<?xml version="1.0" encoding="utf-8"?>
<!-- Generator: Adobe Illustrator 18.1.1, SVG Export Plug-In . SVG Version: 6.00 Build 0)  -->
<svg version="1.1" id="Layer_1" xmlns="http://www.w3.org/2000/svg" xmlns:xlink="http://www.w3.org/1999/xlink" x="0px" y="0px"
	 viewBox="0 0 300 300" enable-background="new 0 0 300 300" xml:space="preserve">
<path fill-rule="evenodd" clip-rule="evenodd" fill="#121212" d="M201.9,40c-5.9-1.5-12.2-1.1-17.8,1.4
	c-10.6,4.7-29.2,16.3-58.2,45.3l13.3,15.9L201.9,40L201.9,40z"/>
<path fill-rule="evenodd" clip-rule="evenodd" fill="#121212" d="M263.6,101.7c1.5,5.9,1.1,12.2-1.4,17.8
	c-4.7,10.6-16.3,29.2-45.3,58.2l-15.9-13.3L263.6,101.7L263.6,101.7z"/>
<g>
	<path fill="#121212" d="M203.7,161.7c-17.1,17.1-42.8,22.2-63.4,1.6c-19.3-19.3-17.1-44.6,1.6-63.3l-14.6-14.6l-80.1,80.1
		c-25.1,25.1-25.1,65.8,0,91l0,0c25.1,25.1,65.8,25.1,91,0l80.1-80.1L203.7,161.7z"/>
	<path fill="#B074B1" d="M275.4,48.3c-0.4-0.8-0.8-1.6-1.1-2.4c-11.8-23.3-43.5-27.6-62-9.1l-69.3,69.3l0.1,0.1
		c-16.1,18.7-11.3,48.4,11.1,59.8c0.8,0.4,1.6,0.8,2.4,1.1c13.7,6,29.6,3.3,40.8-6.5l0.1,0.1l1.9-1.9l41-41L267,91.2
		C278.3,79.9,281.8,62.9,275.4,48.3z"/>
</g>
<path opacity="0.25" fill-rule="evenodd" clip-rule="evenodd" fill="#FFFFFF" d="M140.7,127c0,0,1.7-11.8,12.8-22.9
	c0,0,0.1-0.1,0.1-0.1l60.6-60.6c5.6-5.6,12.8-9.4,20.7-10.7l0,0L140.7,127z"/>
</svg>
