<?xml version="1.0" encoding="utf-8"?>
<!-- Generator: Adobe Illustrator 18.1.1, SVG Export Plug-In . SVG Version: 6.00 Build 0)  -->
<svg version="1.1" xmlns="http://www.w3.org/2000/svg" xmlns:xlink="http://www.w3.org/1999/xlink" x="0px" y="0px"
	 viewBox="0 0 32 32" enable-background="new 0 0 32 32" xml:space="preserve">
<g id="Layer_3" display="none">
	<rect x="-3.8" y="-4.8" display="inline" width="48.1" height="42.6"/>
</g>
<g id="Layer_2">
	<g>
		<path fill="#FFFFFF" d="M29.4,0H2.3C1.1,0,0,1,0,2.3v27.4C0,31,1.1,32,2.3,32h27.1c1.3,0,2.3-1,2.3-2.3V2.3C31.8,1,30.7,0,29.4,0z
			 M9.6,26.8H4.8V12.3h4.8V26.8z M7.2,10.4L7.2,10.4L7.2,10.4c-1.6,0-2.7-1.1-2.7-2.5c0-1.4,1.1-2.5,2.7-2.5c1.6,0,2.7,1.1,2.7,2.5
			C10,9.3,8.9,10.4,7.2,10.4z M27,26.8h-4.8v-7.7c0-1.9-0.7-3.3-2.4-3.3c-1.3,0-2.1,0.9-2.5,1.8c-0.1,0.3-0.2,0.7-0.2,1.2v8.1h-4.8
			h0h0c0,0,0.1-13.1,0-14.4h4.8v2c0.6-1,1.8-2.4,4.3-2.4c3.2,0,5.5,2.1,5.5,6.5V26.8z"/>
	</g>
</g>
</svg>
