<?xml version="1.0" encoding="utf-8"?>
<!-- Generator: Adobe Illustrator 18.1.1, SVG Export Plug-In . SVG Version: 6.00 Build 0)  -->
<svg version="1.1" id="Layer_2" xmlns="http://www.w3.org/2000/svg" xmlns:xlink="http://www.w3.org/1999/xlink" x="0px" y="0px"
	 viewBox="0 0 32 32" enable-background="new 0 0 32 32" xml:space="preserve">
<path fill="#FFFFFF" d="M27.1,0H4.9C2.2,0,0,2.2,0,4.9v22.1C0,29.8,2.2,32,4.9,32h22.1c2.7,0,4.9-2.2,4.9-4.9V4.9
	C32,2.2,29.8,0,27.1,0z M25.9,22.4l-2.9,0c0,0-0.6,0.1-1.5-0.4c-1.1-0.8-2.1-2.7-2.9-2.4c-0.8,0.3-0.8,2-0.8,2s0,0.4-0.2,0.6
	c-0.2,0.2-0.6,0.3-0.6,0.3h-1.3c0,0-2.9,0.2-5.4-2.5c-2.8-2.9-5.2-8.6-5.2-8.6s-0.1-0.4,0-0.6c0.2-0.2,0.6-0.2,0.6-0.2l3.1,0
	c0,0,0.3,0,0.5,0.2c0.2,0.1,0.3,0.4,0.3,0.4s0.5,1.3,1.2,2.4c1.3,2.3,1.9,2.8,2.4,2.5c0.6-0.4,0.5-3.2,0.5-3.2s0-1-0.3-1.5
	c-0.3-0.4-0.8-0.5-1-0.5c-0.2,0,0.1-0.4,0.5-0.6c0.6-0.3,1.6-0.3,2.7-0.3c0.9,0,1.2,0.1,1.5,0.2c1.1,0.3,0.7,1.3,0.7,3.7
	c0,0.8-0.1,1.9,0.4,2.2c0.2,0.2,0.8,0,2.3-2.5c0.7-1.2,1.2-2.6,1.2-2.6s0.1-0.2,0.3-0.4c0.2-0.1,0.4-0.1,0.4-0.1l3.3,0
	c0,0,1-0.1,1.1,0.3c0.2,0.5-0.4,1.6-1.7,3.4c-2.2,2.9-2.5,2.7-0.6,4.4c1.8,1.6,2.1,2.4,2.2,2.5C27.4,22.3,25.9,22.4,25.9,22.4z"/>
</svg>
