<?xml version="1.0" encoding="utf-8"?>
<!-- Generator: Adobe Illustrator 18.1.1, SVG Export Plug-In . SVG Version: 6.00 Build 0)  -->
<svg version="1.1" xmlns="http://www.w3.org/2000/svg" xmlns:xlink="http://www.w3.org/1999/xlink" x="0px" y="0px"
	 viewBox="0 0 300 300" enable-background="new 0 0 300 300" xml:space="preserve">
<g id="Layer_1" display="none">
	<rect x="8.4" y="8.1" display="inline" stroke="#FFFFFF" stroke-miterlimit="10" width="286.7" height="285.2"/>
</g>
<g id="Layer_2">
	<g>
		<g>
			<g>
				<path fill="none" d="M211.2,15.8c-13.9,12.8-28.6,26.3-42.1,42.2c-13.5,15.8-24.8,32.9-34.8,50.1c-10,17.2-18.7,34.7-27,51.9
					l-3.5,7.3l-2.4-8.1C95.1,136.4,91,112,86.9,87l-48.5,7.9c4.1,25.2,8.4,51.2,15.7,77.5l1.4,4.9c0.2,0.8,0.5,1.6,0.7,2.5l0.9,2.8
					l1.4,4.6c0.5,1.5,1,3,1.5,4.5c1,3,2.2,5.8,3.3,8.8l3.3,8.7c1.2,2.7,2.5,5.4,3.7,8.1l1.9,4.1l0.9,2c0.3,0.7,0.6,1.4,1,2l4,7.2
					l2,3.6c0.7,1.2,1.3,2.4,2,3.5l4.1,6.8l8.2,13.8l16.2,27.3l10.5-31l5.3-15.4l2.6-7.5c0.4-1.2,0.9-2.5,1.3-3.7l1.3-3.5
					c3.5-9.5,7.3-18.3,11.2-26.9l3-6.4l2.6-5.6l3-6.3c8.1-16.8,16.3-33.2,25.2-48.6c8.9-15.4,18.7-29.9,29.7-42.9
					c10.9-12.9,24.1-25.1,38-37.9L211.2,15.8z"/>
				<path fill-rule="evenodd" clip-rule="evenodd" fill="#FFFFFF" d="M58.5,172.1c-0.2-0.2-0.4-0.5-0.5-1
					C58.3,171.1,58.6,171.6,58.5,172.1z"/>
				<path fill-rule="evenodd" clip-rule="evenodd" fill="#FFFFFF" d="M86.9,148.9c-0.2-0.3-0.7-1.1-0.1-1.1
					C86.9,148.3,86.8,148.5,86.9,148.9z"/>
				<path fill-rule="evenodd" clip-rule="evenodd" fill="#FFFFFF" d="M87.3,147.2c-0.3,0-0.2-0.8-0.3-1.1
					C87.2,146.1,87.4,147,87.3,147.2z"/>
				<path fill-rule="evenodd" clip-rule="evenodd" fill="#FFFFFF" d="M81.3,143.9c-0.2-0.2-0.5-0.8-0.4-1.1
					C81.2,142.9,81.1,143.6,81.3,143.9z"/>
				<path fill-rule="evenodd" clip-rule="evenodd" fill="#FFFFFF" d="M86,140.7c-0.4-0.3-0.6-0.9-0.7-1.8
					C85.7,139.1,85.8,140.1,86,140.7z"/>
				<path fill-rule="evenodd" clip-rule="evenodd" fill="#FFFFFF" d="M59.2,140.6c-0.2-1-1.1-3-0.7-3.8
					C58.4,138.1,59.3,139.4,59.2,140.6z"/>
				<path fill-rule="evenodd" clip-rule="evenodd" fill="#FFFFFF" d="M69.9,135.6c-0.9-1.1-0.6-3.5-1.4-5c0.5-0.3,0.5,2.3,1.1,2.7
					c0,0.4,0,0.7-0.1,1C69.7,134.8,70.1,135.1,69.9,135.6z"/>
				<path fill-rule="evenodd" clip-rule="evenodd" fill="#FFFFFF" d="M68.7,120.1c-0.3,0.1-0.5,0-0.6-0.4c0.1-0.1,0.2-0.2,0.4-0.2
					L68.7,120.1z"/>
				<path fill-rule="evenodd" clip-rule="evenodd" fill="#FFFFFF" d="M63.5,114.5c-0.7-0.9-1.1-3.2-0.9-4.5
					c-0.1-0.2-0.3-0.1-0.3-0.5c-0.2-0.7-0.3-2.5,0-0.8C63,110.6,62.9,112.3,63.5,114.5z"/>
				<path fill-rule="evenodd" clip-rule="evenodd" fill="#FFFFFF" d="M69.3,112.7c-0.2-0.2-0.3-0.6-0.4-1.1
					C69.2,111.7,69.4,112.5,69.3,112.7z"/>
				<path fill-rule="evenodd" clip-rule="evenodd" fill="#FFFFFF" d="M53.6,113.8c-0.3-0.1-0.2-1-0.3-1.5
					C53.5,112.7,53.8,113.4,53.6,113.8z"/>
				<path fill-rule="evenodd" clip-rule="evenodd" fill="#FFFFFF" d="M67.1,111.8c-0.4-0.3-0.4-1.3-0.8-1.7
					C66.8,109.6,67,111.2,67.1,111.8z"/>
				<path fill-rule="evenodd" clip-rule="evenodd" fill="#FFFFFF" d="M68.7,110.8c-0.4-0.3-0.5-1.2-0.7-1.9
					C68.4,109.2,68.4,110.2,68.7,110.8z"/>
				<path fill-rule="evenodd" clip-rule="evenodd" fill="#FFFFFF" d="M50.5,112.7c-0.4,0-0.5-0.6-0.7-1.1
					C50.2,111.7,50.3,112.4,50.5,112.7z"/>
				<path fill-rule="evenodd" clip-rule="evenodd" fill="#FFFFFF" d="M53.2,111.5c-0.4-0.5-0.6-2.3-0.7-3.3
					C53,109.4,53.1,110.3,53.2,111.5z"/>
				<path fill-rule="evenodd" clip-rule="evenodd" fill="#FFFFFF" d="M68,108.6c-0.7-0.7-0.5-2-0.5-2.8
					C67.9,106.5,67.5,107.7,68,108.6z"/>
				<path fill-rule="evenodd" clip-rule="evenodd" fill="#FFFFFF" d="M62.1,107.3c-0.3-0.3-0.4-0.8-0.6-1.3
					C62,105.9,62,106.8,62.1,107.3z"/>
				<path fill-rule="evenodd" clip-rule="evenodd" fill="#FFFFFF" d="M63,105.7c-0.4-0.3-0.3-0.7-0.3-1.3
					C63,104.5,62.9,105.3,63,105.7z"/>
				<path fill-rule="evenodd" clip-rule="evenodd" fill="#FFFFFF" d="M64.3,104.1c-0.3-0.1-0.6-1.3,0.1-1.2c0.1,0.3-0.1,0.3-0.3,0.4
					C64,103.7,64.3,103.6,64.3,104.1z"/>
				<path fill-rule="evenodd" clip-rule="evenodd" fill="#FFFFFF" d="M54.6,102.1C55.2,102.9,54.7,104.4,54.6,102.1L54.6,102.1z"/>
				<path fill-rule="evenodd" clip-rule="evenodd" fill="#FFFFFF" d="M50,101.1c-0.4-0.6-0.4-1.3-0.4-2.1
					C49.8,99.4,50,100.7,50,101.1z"/>
				<path fill-rule="evenodd" clip-rule="evenodd" fill="#FFFFFF" d="M49.2,100.7c-0.3,0.3-0.5-1-0.1-0.8
					C49.1,100.1,49.2,100.4,49.2,100.7z"/>
				<path fill-rule="evenodd" clip-rule="evenodd" fill="#FFFFFF" d="M42.7,100.1c-0.3-0.2-0.4-0.7-0.4-1.1
					C42.6,99.1,42.8,99.9,42.7,100.1z"/>
				<path fill-rule="evenodd" clip-rule="evenodd" fill="#FFFFFF" d="M42.5,95.5C41.7,94.2,42.2,93.6,42.5,95.5L42.5,95.5z"/>
				<path fill-rule="evenodd" clip-rule="evenodd" fill="#FFFFFF" d="M48.8,132.7c-0.2-0.2-0.4-0.6-0.6-0.8c0.4-0.6-0.2-1.5-0.1-2.2
					C48.7,130.5,48.2,131.5,48.8,132.7z"/>
				<path fill-rule="evenodd" clip-rule="evenodd" fill="#FFFFFF" d="M55.6,112.4c-0.1-0.4,0.2-0.4,0-0.8c0.2-0.1,0.2,0.1,0.4,0.1
					c-0.1-0.8-0.3-1.3-0.4-2c0.1,0.1,0.2,0.1,0.4,0.1c-0.8-0.8,0-2.1-0.6-3.9c1,1.7,1.2,5.9,1.6,7.5c-0.5-0.2-0.3-1.7-0.9-1.7
					C55.7,111.7,56.1,112.6,55.6,112.4z"/>
				<path fill-rule="evenodd" clip-rule="evenodd" fill="#FFFFFF" d="M66.4,108.8c0-0.2-0.1-0.1-0.1,0c-0.3,0-0.2-0.7-0.1-0.8
					C66.5,108.1,66.7,110.3,66.4,108.8z"/>
				<path fill-rule="evenodd" clip-rule="evenodd" fill="#FFFFFF" d="M63.1,96.9l0.5-0.1c-0.2-1-0.6-2.7-0.3-3.5
					c0.5,1.2,0.1,3.9,1,4.7c-0.1,0.2,0,0.6-0.1,0.8c1.2,2.7,0.9,6,1.9,8.9c-1.5-1.1-0.3-4.4-1.8-5.8c0-0.3,0.1,0,0.1,0.1
					C64.2,100.9,64.1,98.5,63.1,96.9z"/>
				<path fill-rule="evenodd" clip-rule="evenodd" fill="#FFFFFF" d="M48.2,100.4c-0.3-0.2-0.4-0.7-0.6-0.9
					C47.6,99.4,48.5,100.1,48.2,100.4z"/>
				<path fill-rule="evenodd" clip-rule="evenodd" fill="#FFFFFF" d="M215.5,79.8c0.5-0.5,0.7-1.3,1.2-1.9c1.2-1.2,2.6-2,3.6-3.4
					c0.9-1.2,1.5-2.7,2.5-3.9c0.8-0.9,0.9-1.3,1.4-2c1.4-1.9,2.9-3.1,2.8-4.7c0.6-1.7,1.8-3.5,2.4-5.1c0.1-0.2,0.5-0.5,0.5-0.6
					c1.4-3.9,1-7.8,3.3-11.8c-0.2-0.8-0.7-1.7-0.7-2.9c0-0.5,0.4-1.2,0.3-1.7c-0.3-1.7-2.2-2.6-1.7-4.6c-0.2-0.3-0.5-0.2-0.7-0.3
					c-2-2.2-4.2-3.6-5.4-5.6c-1.8-0.2-2.7-1.5-4.2-1.9c-1-0.2-2.3,0-3.3-0.1c-1.2-0.1-2.3,0-3.4-0.2c-0.6-0.7-1.5-0.1-2.2-0.5
					c-1.3,0.5-2.6,0.6-3.9,1.1c-0.3-0.1-0.7-0.1-0.9-0.3c-3.1,0.8-6.5,1.3-9.7,3.6c-0.3,0.2-0.9,0.6-1.2,1c-2.1,2-5.5,4.9-7.4,5.2
					c-0.4,0.3-0.2,0.5-0.7,0.8c-0.6-0.2-2.5,0.2-3.5,1.2c-0.3,0.3-0.4,1.5-1,2.3c-0.9,1.3-2.7,1.6-3.5,2.7c-0.4,0.5-0.4,1.5-0.7,2.1
					c-0.9,1.6-3.5,4-4.7,4.9c-0.9,0.7-1.6,0.7-2.1,1.4c-0.5,0.7-0.4,1.5,0.4,2.1c0,1.5-1.2,3.2-2.7,4.8c-0.7,0.8-1.5,1.7-2.2,2.5
					c-0.7,0.8-1.3,1.7-1.6,2.5c-2.2,1.6-2.8,4.2-4.3,6.1c-0.3,0.4-0.9,0.7-1.2,1.1c-0.5,0.7-0.9,1.8-1.4,2.8
					c-0.9,1.6-1.9,2.9-2.5,4.3c-2.4,1.2-2.2,3.4-3.3,5c-0.4,0.6-1.1,1-1.6,1.6c-0.4,0.6-0.5,1.3-0.9,1.9c-0.4,0.6-1.2,1.1-1.6,1.7
					c-0.3,0.5-0.3,0.9-0.6,1.3c-0.3,0.5-0.8,0.6-1.1,1.2c-0.3,0.6-0.3,1.4-0.6,1.9c-1.1,2.1-2.9,4-3.3,6.4
					c-2.7,3.1-3.5,6.7-6.5,10.4c-0.4,1.1-0.7,2-1.5,2.9c-0.1,0.3,0.2,0.4,0,0.8c-1.5,2-1.9,4.7-3.5,6.7c0.1,0.1,0.1,0.3,0.1,0.5
					c-2.2,2.8-4.3,6.6-4.9,9.3c-1.5,1.6-2,4.1-3.2,6.4c-0.6,1.1-1.4,2-1.8,3.1c-0.8,2.1-2.4,4.6-3.1,6.5c-0.2,0.6-0.2,1.3-0.4,1.9
					c-0.4,1.1-1.2,2-1.6,3.1c-1.4,4.4-4.1,9-5.9,12.6c-0.5,1.1-0.6,2.3-1.1,3.6l-0.2,0.4l-0.1,0.3c0,0.1-0.1,0.1-0.1,0.2
					c-0.1,0.1-0.2,0.3-0.3,0.4c-0.2,0.2-0.5,0.5-0.5,0.8c0,0.2,0.1,0.5,0.1,0.7c-0.1,0.5-0.4,0.6-0.6,1c-0.2,0.5-0.3,1.1-0.4,1.7
					c-0.2,0.6-0.4,1.1-0.7,1.2c0,1.1-0.3,2.1-0.6,2.9c-0.3,0.9-0.7,1.7-0.9,2.5c0,1.6-0.2,0.8-0.3,1.4c-0.2,1-0.5,2.7-0.8,3.8
					c-0.2,0.6-0.4,1.1-0.5,1.1c-0.1,0.5-0.2,1-0.3,1.5c-0.2-0.2-0.4-0.3-0.5-0.5c-0.4-0.4-0.8-0.8-1.1-1.3c-0.7-1-1.5-2.2-2.2-3.4
					l-1.1-1.9c-0.3-0.6-0.7-1.3-1-1.9c-0.7-1.2-1.4-2.5-2.3-3.8c0.2-0.9-0.3-1.4-0.7-1.6c0.2-0.3,0.1-0.6,0.1-0.9
					c-0.9-0.3-0.8-1.7-1.2-2.6c-0.8,0.1-0.4-0.8-1.1-1c0.4-0.3,0.4,0.1,0.6-0.2c-0.1,0-0.2,0-0.3-0.1c-0.1-0.1-0.2-0.2-0.3-0.3
					c-0.2-0.2-0.4-0.5-0.6-0.9c-0.3-0.7-0.7-1.4-0.9-2.3c-0.5-1.7-1-3.5-1.5-4.5c0,0.2-0.2,0.2-0.2,0.1c0.2-0.6-0.6-0.7-0.7-1.3
					c-1.3-4-3.3-6.6-4.7-10c0.1-0.5,0.4-1.8-0.2-2.1c0.1,0.7,0.3,1.5-0.3,1.5c-0.1-1.1-0.6-2.4-1.3-3c-0.4-1.3-0.2-2-0.9-3.1
					c-0.1-0.3-0.5,0.4-0.7-0.2c-0.1-1.9-0.8-2.7-0.9-4.5c-0.6-0.4-1.2-2.3-1.1-3c-0.4-0.5-0.3,0.7-0.6,0.3c-0.5-1.5-1-2.8-0.9-4.3
					c-0.3-0.3-0.7-0.5-0.9-1c-0.1-0.4,0.6,0,0.3-0.5c-0.4-0.5-0.5,0.5-0.9,0.5c-0.3-0.7-0.6-0.5-1-0.8c0.1-1.1-0.7-1.7-1.1-2.7
					c-0.4-1-0.4-2.1-0.8-3c-0.3-0.8-0.8-1.1-0.9-2c-0.1-0.8,0.2-1.5,0-2.3c-0.2-0.4-0.4,0.4-0.5-0.3c-0.7-2.9-1.4-5.9-2.5-8
					c1.5,3.2,1,5.8,2.4,8.6c-0.4,0.5,0.6,1.3-0.1,1.8c0.3,0.1,0.4-0.6,0.5,0.1c0,0.2-0.1,0.3,0,0.7c-0.7-0.3-0.6,0.3-1,0.6
					c0.5,2.5,1.2,4.4,1.6,6.6c0.2,0.4,0.3-0.3,0.5,0.1c0.3,0.8,0.3,1.5,0.7,2.4c-0.4,0.4-0.5,1.1-1.2,0.9c-0.5-2.9-2.3-6.7-3-10.2
					c-0.2-1.1,0-2.2-0.8-2.7c0.5,1.5-0.1,2.9,0.1,4.3c0.2,1.8,1.4,3.5,1.5,5.3c0.1,0.5-0.1,0.7,0,1.2c0.1,0.3,0.5,0.9,0.6,1.2
					c0.1,0.4-0.2,0.5-0.1,0.9c0.2,0.7,0.7,1.2,0.9,2c0.3,1.4,0.1,2.8,0.6,4.3c-0.2,0.3-0.7,0.3-0.9,0c-0.3-1.8-0.4-2.1-0.9-3.9
					c0,0.2-0.1,0.4-0.3,0.4c-0.1-0.6,0-0.8-0.3-1.1c0.3,1.3-0.6,1.4-1.1,1c-0.5-3.4-1.7-7.4-2-10.3c-0.3-0.3-0.7-0.4-0.9-0.9
					c-0.9-3.1-1.2-6.6-2.1-9.9c0,3.9,1.1,7.9,2.2,12.2c-0.1,0.2-0.4,0.1-0.3,0.5c0.7,1.8,1.1,4,1.5,5.5c-0.4,0.8-0.8,1.5-1.2,2.2
					c1.4,4.5,0,8.4,1.1,12.9c-0.4,0.1-0.4,0.4-0.6,0.6c-0.4-0.3-0.8-0.4-1.2-0.8c-0.2-0.7-0.6-1.4-0.5-2.1
					c-1.9-3.5-2.3-9.1-3.8-13.6c-0.7-0.5-1.1,0.1-1.5,0.6c0.1,2.3,1.3,4.2,1.1,6.8c-1.2,1.2-2.4,0.5-2.8-1.4
					c-0.8-3.1-1.7-8.4-1.9-10.4c-2.5-8.9-3.7-17.9-5.9-27c0.6,5.2,2.1,9.8,2.4,14.5c0.3-0.1,0.4,0.1,0.4,0.4
					c0.6,4.5,1.6,9.6,2.8,13.5c-0.5,1.8,1.1,4.9,0.6,6.7c-1.4-0.2-2.3-1.4-3-3.1c0.4,1.8,0.3,3.5,0.5,5.1c0.2,1.3,1.1,3.3,0.9,4
					c0,0.2-0.4-0.1-0.3,0.2c-0.1-0.5,0.3,0.9,0.3,1c0.3,0.6,0.4,0.5,0.5,1.3c0.2,1,0.1,1,0,1.7c0.6,3.6,1.8,6.9,2.3,10.5
					c0.1,0.4,0.3,1.1,0.3,1.2c0,0.4-0.3,0.1-0.2,0.6c0,0.3,0.3,0.1,0.4,0.5c0.2,1.4,0.5,3,0.9,4.4c0.2,0.9,0.5,1.8,0.7,2.7
					c0.2,0.9,0.5,1.9,0.7,2.8c0.4,1.8,0.9,3.6,1.3,5c0.1,0.7-0.5-0.1-0.3,0.8c0.3,1.2,0.6,2.5,0.9,3.8l0.1,0.5l0.2,0.7l0.5,1.6
					c0.3,1.1,0.6,2.2,0.9,3.2c1.3,4.3,2.8,8.5,4.4,12.7c0.2,0.7-0.4,0.5,0,1.4c0.4,1.2,0.7,0.5,1.1,1.6c0.1,0.8,0.2,1.5,0.1,2.1
					l0.6,1.9c0.2,0.6,0.5,1.2,0.7,1.8c0.5,1.2,1,2.3,1.5,3.5c1,2.3,2.1,4.7,3.2,6.9l0.8,1.7c0.3,0.6,0.6,1,0.9,1.6l1.8,3.1
					c1.2,2,2.3,4.1,3.5,6.1c1.1,2,2.2,3.7,3.3,5.6c1.1,1.8,2.2,3.7,3.2,5.5c2.1,3.6,4.3,7.3,6.4,10.8c0.8,1.4,1.6,2.7,2.5,4
					c0.9,1.3,1.7,2.7,2.5,4c0.8,1.3,1.7,2.6,2.5,4c0.4,0.7,0.8,1.4,1.2,2.1l0.6,1.1l0.3,0.5c0.1,0.2,0.2,0.2,0.2,0.4
					c0.7,0.6,1.4,1.3,2.1,1.9l0.3,0.2l0.3,0.3l0.6,0.7c0.4,0.5,0.8,0.9,1.2,1.4c1.6-4.7,3.1-9.3,4.7-14.1c2.2-6.6,4.8-13.2,6.6-19.2
					c0.3-1,0.6-2.6,0.9-3.7c0.6-1.6,1.3-2.6,1.9-4.2c1.6-4.3,2.8-9.5,4.4-13.4c0.4-1.1,0.9-2.3,1.3-3.3c0.5-1.1,0.9-2.1,1.3-3.2
					l1.3-3.2c0.5-1,0.9-2.1,1.4-3.1c0.5-1.2,1-2.4,1.4-3.7c0.4-1.2,0.9-2.4,1.4-3.6c0.7-1.5,1.6-2.9,2.4-4.5c1-2.2,1.9-4.5,2.8-6.8
					l0.4-0.8l0.2-0.5c0.1-0.3,0.2-0.6,0.4-0.9c0.3-0.6,0.5-1.2,0.8-1.8c1.6-3.1,3.7-6.1,4.7-9.5c2-3.4,4.1-7.6,5.6-11
					c2.2-2.3,2.7-5.5,4.5-8.4c0.2-0.3,0.5-0.4,0.7-0.7c3-4.2,4.5-9.8,7-13.1c0.2-1.7,1.4-2.5,2.3-3.6c0.9-1.3,1.2-2.7,2-4
					c0.2-0.4,0.7-0.7,0.9-1.1c0.8-1.2,1.2-2.7,2-4.2c1.2-2.2,3.4-3.9,4.3-6.6c1.5-1.6,3.6-4,4.5-6.4c1.5-1.5,2.6-3.3,3.7-5
					c1.1-1.8,2.1-3.6,3.6-5.2c0.9-1.1,2.2-1.8,2.6-3.3c1.4-0.8,2.2-2.4,3.3-3.8c1.1-1.4,2.6-2.6,3.8-3.9c0.4-0.5,0.9-1,1.3-1.6
					c0.5-0.5,0.9-1.1,1.4-1.6c0.9-1,1.9-1.9,3.1-2.2c2.6,1.1,0.7-2.8,2.6-4c1.2-0.5,1.6,0.2,2.7,0.5c1-0.5,1.4-1.3,1.9-2.2
					C213,80.6,214.4,80.9,215.5,79.8z M76,137.6c0.1,0,0.2-0.1,0.2-0.2C76.8,137.6,76.2,138.5,76,137.6z M75.7,137.3
					c-0.3-1.3-1.3-3.1-1-4.1c0-0.3-0.6,0.4-0.9,0c0.2-0.6,0.3-1.4,0.1-2.3c1-0.3,0.8,1.8,1.6,1.7c0.1,0.8,0.1,1.1,0.6,1.4
					c0,1.6,0.7,1.8,0.6,3.1C76.1,136.8,76.4,137.3,75.7,137.3z"/>
			</g>
		</g>
	</g>
	<g>
		<g>
			<g>
				<path fill="none" d="M198.6,183.2c0,0-0.4-0.4-1.1-1c-0.8-0.7-1.8-1.7-3.2-3c-2.7-2.6-6.5-6.5-10.5-11.5
					c-4-5.1-8.3-11.3-12.1-18.4c-1.9-3.6-3.6-7.2-5.4-11.4c-1.7-4.2-3.5-8.8-5.3-13.8c-1.9-5-3.9-10.2-6.3-15.6
					c-2.4-5.4-5-10.6-7.7-15.3c-5.3-9.6-10.8-17.8-15.5-24.6c-4.7-6.8-8.7-12.1-11.5-15.9c-2.7-3.7-4.3-5.8-4.3-5.8L76.3,76.2
					c0,0,1.5,2.1,4.2,5.7c2.6,3.6,6.4,8.6,10.6,14.6c4.2,6,8.7,12.9,12.8,20.4c2.1,3.7,4,7.5,5.7,11.5c1.8,3.9,3.5,8.4,5.3,13.1
					c1.8,4.8,3.7,9.9,5.9,15.1c2.2,5.2,4.7,10.7,7.4,15.7c5.3,10.1,11.4,18.8,17.1,26c5.7,7.1,11,12.6,14.8,16.3
					c1.9,1.8,3.5,3.3,4.5,4.2c1.1,1,1.6,1.5,1.6,1.5L198.6,183.2z"/>
				<path fill-rule="evenodd" clip-rule="evenodd" fill="#FFFFFF" d="M98.8,100.2c-0.2,0-0.3-0.1-0.4-0.2
					C98.6,99.9,98.9,99.9,98.8,100.2z"/>
				<path fill-rule="evenodd" clip-rule="evenodd" fill="#FFFFFF" d="M122.7,76.1c-0.2,0-0.7-0.2-0.2-0.5
					C122.7,75.8,122.6,76,122.7,76.1z"/>
				<path fill-rule="evenodd" clip-rule="evenodd" fill="#FFFFFF" d="M122.9,75.1c-0.2,0.1-0.2-0.3-0.4-0.4
					C122.8,74.5,123,74.9,122.9,75.1z"/>
				<path fill-rule="evenodd" clip-rule="evenodd" fill="#FFFFFF" d="M117.5,76.3c-0.2,0-0.5-0.1-0.4-0.4
					C117.4,75.8,117.4,76.2,117.5,76.3z"/>
				<path fill-rule="evenodd" clip-rule="evenodd" fill="#FFFFFF" d="M121.3,72.4c-0.4,0-0.6-0.2-0.8-0.5
					C120.9,71.8,121.1,72.2,121.3,72.4z"/>
				<path fill-rule="evenodd" clip-rule="evenodd" fill="#FFFFFF" d="M98.5,85.5c-0.3-0.3-1.2-0.8-0.9-1.4
					C97.7,84.8,98.5,84.9,98.5,85.5z"/>
				<path fill-rule="evenodd" clip-rule="evenodd" fill="#FFFFFF" d="M107.2,77.9c-0.9,0-0.8-1.3-1.6-1.6c0.4-0.4,0.7,0.8,1.2,0.7
					c0.1,0.2,0,0.3,0,0.5C106.9,77.6,107.3,77.5,107.2,77.9z"/>
				<path fill-rule="evenodd" clip-rule="evenodd" fill="#FFFFFF" d="M104.6,71.4c-0.2,0.2-0.4,0.3-0.5,0.1c0.1-0.1,0.2-0.2,0.4-0.3
					L104.6,71.4z"/>
				<path fill-rule="evenodd" clip-rule="evenodd" fill="#FFFFFF" d="M99.7,71.5c-0.7,0-1.3-0.8-1.3-1.5c-0.1,0-0.3,0.1-0.3,0
					c-0.3-0.2-0.5-1-0.1-0.4C98.8,70.1,98.9,70.9,99.7,71.5z"/>
				<path fill-rule="evenodd" clip-rule="evenodd" fill="#FFFFFF" d="M104.3,67.7c-0.2,0-0.4-0.1-0.5-0.3
					C104.1,67.3,104.4,67.6,104.3,67.7z"/>
				<path fill-rule="evenodd" clip-rule="evenodd" fill="#FFFFFF" d="M91.3,76.5C91,76.6,91,76.1,90.8,76C91,76,91.4,76.2,91.3,76.5
					z"/>
				<path fill-rule="evenodd" clip-rule="evenodd" fill="#FFFFFF" d="M102.4,68.5c-0.4,0-0.5-0.3-0.8-0.4
					C101.8,67.6,102.1,68.3,102.4,68.5z"/>
				<path fill-rule="evenodd" clip-rule="evenodd" fill="#FFFFFF" d="M103.5,67.2c-0.4,0.1-0.5-0.3-0.8-0.5
					C103.1,66.7,103.3,67,103.5,67.2z"/>
				<path fill-rule="evenodd" clip-rule="evenodd" fill="#FFFFFF" d="M88.6,77.6c-0.3,0.2-0.5,0-0.7-0.1
					C88.2,77.3,88.3,77.6,88.6,77.6z"/>
				<path fill-rule="evenodd" clip-rule="evenodd" fill="#FFFFFF" d="M90.7,75.6c-0.4,0-0.8-0.7-1-1C90.2,74.8,90.4,75.2,90.7,75.6z
					"/>
				<path fill-rule="evenodd" clip-rule="evenodd" fill="#FFFFFF" d="M102.7,66.6c-0.7,0-0.6-0.7-0.8-1
					C102.3,65.7,102.2,66.4,102.7,66.6z"/>
				<path fill-rule="evenodd" clip-rule="evenodd" fill="#FFFFFF" d="M97.6,69.1c-0.2,0-0.4-0.2-0.6-0.3
					C97.4,68.5,97.4,68.9,97.6,69.1z"/>
				<path fill-rule="evenodd" clip-rule="evenodd" fill="#FFFFFF" d="M98.2,67.9c-0.3,0-0.3-0.2-0.4-0.4C98,67.4,98,67.8,98.2,67.9z
					"/>
				<path fill-rule="evenodd" clip-rule="evenodd" fill="#FFFFFF" d="M99,66.5c-0.3,0.1-0.7-0.3-0.1-0.6c0.1,0.1-0.1,0.2-0.2,0.3
					C98.8,66.5,99,66.3,99,66.5z"/>
				<path fill-rule="evenodd" clip-rule="evenodd" fill="#FFFFFF" d="M90.7,70.8C91.3,70.8,91.1,71.7,90.7,70.8L90.7,70.8z"/>
				<path fill-rule="evenodd" clip-rule="evenodd" fill="#FFFFFF" d="M86.7,72.8c-0.4-0.1-0.5-0.4-0.6-0.7
					C86.4,72.1,86.7,72.6,86.7,72.8z"/>
				<path fill-rule="evenodd" clip-rule="evenodd" fill="#FFFFFF" d="M86,73c-0.2,0.3-0.6-0.2-0.2-0.3L86,73z"/>
				<path fill-rule="evenodd" clip-rule="evenodd" fill="#FFFFFF" d="M80.5,76.2c-0.3,0.1-0.4-0.1-0.5-0.3
					C80.3,75.8,80.6,76.1,80.5,76.2z"/>
				<path fill-rule="evenodd" clip-rule="evenodd" fill="#FFFFFF" d="M79.8,74.3C79,74.1,79.3,73.6,79.8,74.3L79.8,74.3z"/>
				<path fill-rule="evenodd" clip-rule="evenodd" fill="#FFFFFF" d="M89.1,87.3c-0.2,0-0.4-0.1-0.6,0c0.3-0.5-0.3-0.5-0.3-0.9
					C88.8,86.4,88.5,87.1,89.1,87.3z"/>
				<path fill-rule="evenodd" clip-rule="evenodd" fill="#FFFFFF" d="M92.7,74.8c-0.1-0.1,0.1-0.3-0.1-0.4c0.1-0.1,0.2-0.1,0.3-0.2
					c-0.1-0.3-0.4-0.4-0.6-0.6c0.1,0,0.2-0.1,0.3-0.1c-0.8,0.1-0.2-0.9-1-1.4c1,0.2,1.7,2,2.2,2.5c-0.4,0.2-0.5-0.6-0.9-0.3
					C92.8,74.4,93.3,74.6,92.7,74.8z"/>
				<path fill-rule="evenodd" clip-rule="evenodd" fill="#FFFFFF" d="M101.4,67.5C101.3,67.4,101.3,67.5,101.4,67.5
					c-0.3,0.2-0.3-0.2-0.3-0.2C101.4,67.1,101.8,68,101.4,67.5z"/>
				<path fill-rule="evenodd" clip-rule="evenodd" fill="#FFFFFF" d="M97.1,63.9l0.4-0.3c-0.3-0.4-0.8-0.9-0.7-1.4
					c0.6,0.2,0.6,1.7,1.5,1.5c0,0.2,0.1,0.3,0,0.4c1.4,0.6,1.5,2.2,2.7,2.9c-1.4,0.3-0.8-1.8-2.2-1.6c0-0.1,0.1-0.1,0.1,0
					C98.6,65.1,98.2,64.1,97.1,63.9z"/>
				<path fill-rule="evenodd" clip-rule="evenodd" fill="#FFFFFF" d="M85.2,73.4c-0.2,0-0.4-0.1-0.6-0.1
					C84.5,73.3,85.3,73.1,85.2,73.4z"/>
				<path fill-rule="evenodd" clip-rule="evenodd" fill="#FFFFFF" d="M151.1,205.1c0.3,0.3,0.9,0.3,1.1,0.6c0.6,0.7,0.8,1.6,1.6,2.1
					c0.7,0.5,1.7,0.6,2.4,1.1c0.5,0.4,0.8,0.4,1.2,0.6c1.2,0.6,1.7,1.5,3,1c1.2,0,2.3,0.5,3.3,0.4c0.2,0,0.3,0.2,0.4,0.2
					c2.7-0.1,5.6-1.6,8.2-1.2c0.6-0.4,1.4-1.1,2.2-1.5c0.4-0.2,0.8-0.1,1.2-0.4c1.3-0.8,2.3-2.5,3.6-2.8c0.3-0.3,0.2-0.4,0.4-0.6
					c2-2.2,3.4-4.3,5.1-5.9c0.5-1.4,1.7-2.5,2.2-3.7c0.4-0.8,0.5-1.6,0.8-2.4c0.3-0.9,0.5-1.6,0.9-2.5c0.6-0.7,0.4-1.1,0.9-1.7
					c0-0.8,0.3-1.6,0.3-2.3c0.2-0.3,0.2-0.5,0.5-0.7c0.3-1.8,0.8-3.9,0.3-5.3c-0.1-0.1-0.2-0.4-0.3-0.5c-0.8-0.7-1.6-2.1-1.1-3.3
					c-0.1-0.2-0.3,0-0.3-0.2c0.3-0.5,0.7-1.6,0.4-1.9c-0.1-0.1-0.9,0.2-1.2,0c-0.5-0.3-0.1-1.3-0.5-1.6c-0.2-0.1-0.9,0.2-1.1,0.1
					c-0.7-0.2-1.3-1.3-1.4-1.8c-0.1-0.4,0.2-0.9,0-1.1c-0.2-0.1-0.9,0.1-1.6,0.7c-2.1,0.7-2.1-1.9-3.6-2.3c0-1.2-1.5-1.1-1.8-1.9
					c-0.1-0.2,0-0.5-0.1-0.6c-0.2-0.2-0.7-0.3-1.1-0.5c-0.6-0.4-0.9-0.9-1.4-1.1c0.5-1.4-1-1.1-1.3-1.7c-0.1-0.2,0-0.6-0.1-0.9
					c-0.1-0.2-0.6-0.2-0.7-0.5c-0.1-0.2,0-0.7-0.1-0.9c-0.1-0.2-0.4-0.2-0.5-0.3c-0.1-0.2,0.1-0.5-0.1-0.6c-0.2-0.2-0.7-0.1-0.8-0.3
					c-0.6-0.6-0.7-1.7-1.8-1.9c-0.1-1.6-1.8-2.1-1.9-4c-0.4-0.3-0.7-0.5-0.7-1c-0.1,0-0.4,0.1-0.4-0.1c-0.1-0.9-1.4-1.3-1.5-2.3
					c-0.1,0-0.3,0.1-0.4,0c-0.1-1.4-0.7-2.9-1.7-3.5c0.2-0.9-0.8-1.5-1.2-2.4c-0.2-0.4-0.1-1-0.4-1.3c-0.6-0.7-0.7-1.8-1.2-2.6
					c-0.1-0.2-0.5-0.3-0.7-0.5c-0.3-0.4-0.1-1-0.5-1.3c-1.3-1.5-1.7-3.7-2.3-5.2c-0.2-0.5-0.7-0.8-1-1.3c-0.6-0.8-0.3-2-0.8-2.9
					c-0.1-0.2-0.4-0.4-0.6-0.6c-0.3-0.5-0.3-1.1-0.6-1.7c-0.6-1.4-1.8-2.7-1.8-4.3c-1.4-1.5-2.3-4.3-3.3-6.4
					c-0.8-0.2-0.5-0.9-0.8-1.4c-0.9-1.4-2.4-3.1-2.7-4.9c-4.2-6.3-7.4-13.3-12.2-18.7c0.1-0.7-0.6-1.3-1.1-1.6c0.2-0.3,0-0.5,0-0.8
					c-1.1-0.3-1.2-1.6-2-2.5c-0.8,0.2-0.7-0.7-1.4-0.7c0.3-0.4,0.4,0,0.5-0.4c-1.6,0.2-2.4-2.2-3.3-2.9c0,0.1-0.1,0.2-0.2,0.1
					c0.1-0.4-0.5-0.1-0.7-0.4c-1.2-1.5-3.2-1.9-4.5-3c0-0.3,0.2-1.1-0.3-0.9c0.1,0.3,0.4,0.6-0.1,0.9c-0.1-0.5-0.7-0.9-1.3-0.9
					c-0.4-0.5-0.3-0.9-1-1.1c-0.1-0.1-0.4,0.5-0.6,0.2c-0.2-0.9-0.9-0.9-1.1-1.7c-0.6,0.1-1.2-0.5-1.2-0.9c-0.3-0.1-0.2,0.5-0.5,0.4
					c-0.5-0.5-1.1-0.9-1.2-1.6c-0.3,0-0.7,0.1-0.9,0c-0.1-0.1,0.5-0.3,0.2-0.4c-0.4,0-0.3,0.5-0.7,0.7c-0.4-0.2-0.6,0.1-0.9,0.1
					c0-0.6-0.8-0.5-1.2-0.7c-0.4-0.2-0.6-0.8-1-1c-0.3-0.2-0.8-0.1-1-0.4c-0.2-0.3,0-0.8-0.3-1.1c-0.2-0.1-0.3,0.4-0.5,0.2
					c-0.9-1-1.8-2-3-2.3c1.6,0.7,1.5,2.1,3,2.7c-0.3,0.5,0.6,0.3,0.1,0.9c0.3-0.1,0.3-0.5,0.4-0.2c0,0.1-0.1,0.2,0.1,0.3
					c-0.6,0.2-0.5,0.5-0.8,0.8c0.7,0.9,1.5,1.4,2,2.2c0.2,0.1,0.2-0.3,0.4-0.2c0.3,0.2,0.4,0.5,0.8,0.8c-0.3,0.4-0.3,0.8-0.9,1
					c-0.7-1.1-2.5-2-3.5-3.2c-0.3-0.4-0.2-1-1-0.8c0.6,0.4,0.3,1.4,0.6,1.9c0.4,0.7,1.5,0.9,1.8,1.7c0.1,0.2,0,0.4,0.1,0.6
					c0.1,0.1,0.5,0.1,0.6,0.3c0.1,0.2-0.1,0.3,0,0.4c0.2,0.2,0.7,0.2,0.9,0.5c0.3,0.5,0.3,1.3,0.8,1.7c-0.1,0.2-0.6,0.5-0.7,0.4
					c-0.4-0.7-0.5-0.8-1-1.4c0,0.1,0,0.2-0.2,0.3c-0.1-0.2,0-0.4-0.4-0.4c0.4,0.5-0.4,1-0.9,1.1c-0.7-1.3-2.1-2.5-2.6-3.7
					c-0.3,0-0.6,0.2-0.8,0.1c-1.1-0.9-1.7-2.4-2.8-3.4c0.4,1.8,1.8,2.9,3.2,4.4c0,0.1-0.4,0.3-0.2,0.4c0.8,0.5,1.3,1.3,1.7,1.8
					c-0.3,0.5-0.5,1.1-0.8,1.6c1.5,1.4,0.7,3.9,1.8,5.4c-0.3,0.2-0.3,0.4-0.5,0.6c-0.3,0-0.7,0.2-1,0.2c-0.2-0.2-0.5-0.4-0.5-0.8
					c-1.8-0.7-2.5-3-4.2-4.3c-0.6,0.1-0.9,0.6-1.2,1c0.3,1,1.5,1.2,1.5,2.5c-0.9,1.1-2,1.4-2.5,0.8c-0.9-1-2.1-2.9-2.4-3.7
					c-3-2.6-5-6-7.9-8.8c1.1,2,3,3.2,3.7,5.1c0.2-0.2,0.3-0.2,0.4,0c1.1,1.7,2.3,3.4,3.7,4.5c-0.3,1.1,1.3,1.6,1,2.7
					c-1.2,0.6-2.1,0.5-2.8,0.1c0.5,0.6,0.6,1.4,0.9,2c0.2,0.5,1.1,1,1,1.3c0,0.1-0.3,0.2-0.3,0.3c-0.1-0.2,0.3,0.3,0.3,0.3
					c0.3,0.1,0.3,0,0.5,0.3c0.2,0.4,0.2,0.4,0.1,0.8c0.7,1.3,1.8,2.3,2.4,3.6c0.1,0.1,0.3,0.4,0.3,0.4c0,0.2-0.3,0.2-0.2,0.4
					c0,0.1,0.2-0.1,0.3,0c0.2,0.5,0.5,1.1,0.8,1.6c0.9,1.1,1.5,2.7,2.2,3.6c0.1,0.3-0.5,0.2-0.3,0.5c0.8,1.8,1.7,3.7,2.7,5.5
					c0,0.2-0.5,0.3-0.3,0.5c0.1,0.3,0.5-0.1,0.6,0.2c-0.1,0.2-0.1,0.4-0.3,0.7c0.9,2.2,2.5,4.1,3.8,6c1.3,1.8,2.3,3.8,3.3,5.6
					c0.8,1.4,2,2.6,2.3,4.1c1.2,1.6,1.9,3.1,2.7,4.8c0.6,1.2,0.9,2.7,1.6,3.7c0.1,0.2,0.5,0.3,0.6,0.5c0.1,0.3-0.1,0.8,0,1.2
					c0.3,0.9,1.2,1.7,1.5,2.6c0.4,1,0.7,2.1,1,3.1c0.2,0.6,0.8,1,1,1.6c0.2,0.4,0,0.9,0.2,1.3c0.5,1.1,1.4,2.1,1.7,3.3
					c0.4,1.5,0.5,3.3,1.7,4.6c0.4,1.8,1.2,3.9,2.1,5.5c-0.3,1.7,1.2,2.8,1.7,4.4c0.1,0.2-0.1,0.4,0,0.5c0.4,2.7,2.8,4.7,3.3,6.9
					c0.9,0.4,0.6,1.3,0.8,2.1c0.2,0.8,1,1.2,1.3,1.9c0.1,0.2,0,0.5,0.1,0.8c0.3,0.7,1,1.2,1.5,1.9c0.7,1,0.5,2.7,1.8,3.7
					c0.2,1.2,0.6,2.9,1.8,3.7c0.2,1.2,0.8,2.1,1.5,2.9c0.7,0.9,1.5,1.7,1.9,2.7c0.3,0.7,0.2,1.6,1.1,1.9c-0.1,1,0.8,1.6,1.3,2.4
					c0.5,0.8,0.8,1.8,1.3,2.7c0.7,1.3,2.2,2.3,1.9,4c-1.8,2.1,1.9,0.3,2.2,1.5c0,0.8-0.7,1.3-1.3,2.1c0,0.7,0.6,0.9,1.1,1.2
					C151.1,203.3,150.5,204.5,151.1,205.1z M112.5,75.8c0.1-0.1,0.2-0.1,0.2-0.2C113.2,75.4,112.7,76.2,112.5,75.8z M112.2,75.8
					c-0.4-0.5-1.3-0.8-1.2-1.5c-0.1-0.1-0.5,0.5-0.7,0.4c0.1-0.4,0.1-0.8-0.2-1.1c0.8-0.6,0.8,0.5,1.6,0c0.1,0.3,0.2,0.5,0.7,0.3
					c0.1,0.8,0.7,0.5,0.8,1.2C112.5,75.3,112.8,75.5,112.2,75.8z"/>
			</g>
		</g>
	</g>
	<g>
		<g>
			<g>
				<path fill="none" d="M253.2,129.8c0,0-18.6-30.4-37.2-60.9c-4.7-7.7-9.8-15.7-15.1-23.2c-5.2-7.5-10.7-14.4-15.9-20.2
					c-5.2-5.8-10-10.4-13.6-13.5c-1.7-1.6-3.3-2.7-4.2-3.5c-1-0.8-1.5-1.2-1.5-1.2l-30.1,38.8c0,0,0.3,0.3,1,0.8
					c0.6,0.5,1.6,1.2,2.7,2.3c2.3,2,5.6,5.1,9.3,9.2c3.7,4.1,7.9,9.4,12.3,15.6c4.3,6.2,8.8,13.2,13.4,20.7
					c18.5,30.4,37.1,60.7,37.1,60.7L253.2,129.8z"/>
				<path fill-rule="evenodd" clip-rule="evenodd" fill="#FFFFFF" d="M155.5,60c-0.2,0.1-0.3,0-0.4-0.1
					C155.4,59.7,155.6,59.7,155.5,60z"/>
				<path fill-rule="evenodd" clip-rule="evenodd" fill="#FFFFFF" d="M177.2,34.1c-0.2,0-0.7-0.1-0.2-0.4
					C177.2,33.8,177.1,34,177.2,34.1z"/>
				<path fill-rule="evenodd" clip-rule="evenodd" fill="#FFFFFF" d="M177.3,33.1c-0.2,0.2-0.2-0.2-0.4-0.3
					C177.2,32.6,177.4,32.9,177.3,33.1z"/>
				<path fill-rule="evenodd" clip-rule="evenodd" fill="#FFFFFF" d="M172.3,35.1c-0.2,0.1-0.5,0-0.4-0.3
					C172.1,34.7,172.1,35.1,172.3,35.1z"/>
				<path fill-rule="evenodd" clip-rule="evenodd" fill="#FFFFFF" d="M175.6,30.9c-0.3,0.1-0.6,0-0.8-0.4
					C175.2,30.3,175.4,30.7,175.6,30.9z"/>
				<path fill-rule="evenodd" clip-rule="evenodd" fill="#FFFFFF" d="M155.1,47.2c-0.3-0.2-1.1-0.4-0.9-1
					C154.2,46.8,155,46.7,155.1,47.2z"/>
				<path fill-rule="evenodd" clip-rule="evenodd" fill="#FFFFFF" d="M162.6,38.6c-0.8,0.2-0.9-1-1.6-1.1c0.4-0.5,0.7,0.6,1.1,0.4
					c0.1,0.1,0.1,0.3,0.1,0.4C162.4,38.4,162.8,38.2,162.6,38.6z"/>
				<path fill-rule="evenodd" clip-rule="evenodd" fill="#FFFFFF" d="M159.7,33.3c-0.2,0.2-0.4,0.4-0.5,0.2c0-0.1,0.1-0.2,0.3-0.4
					L159.7,33.3z"/>
				<path fill-rule="evenodd" clip-rule="evenodd" fill="#FFFFFF" d="M155.2,34.6c-0.6,0.2-1.3-0.4-1.4-1c-0.1,0-0.2,0.2-0.3,0.1
					c-0.3-0.1-0.6-0.7-0.1-0.3C154.2,33.6,154.4,34.3,155.2,34.6z"/>
				<path fill-rule="evenodd" clip-rule="evenodd" fill="#FFFFFF" d="M159,30c-0.2,0.1-0.3,0-0.5-0.1C158.8,29.7,159.1,29.8,159,30z
					"/>
				<path fill-rule="evenodd" clip-rule="evenodd" fill="#FFFFFF" d="M148.1,41.3c-0.2,0.2-0.3-0.2-0.4-0.3
					C147.9,41,148.2,41,148.1,41.3z"/>
				<path fill-rule="evenodd" clip-rule="evenodd" fill="#FFFFFF" d="M157.3,31.2c-0.3,0.1-0.5-0.2-0.8-0.1
					C156.7,30.6,157.1,31,157.3,31.2z"/>
				<path fill-rule="evenodd" clip-rule="evenodd" fill="#FFFFFF" d="M158.2,29.7c-0.3,0.2-0.5-0.1-0.8-0.3
					C157.8,29.3,158,29.6,158.2,29.7z"/>
				<path fill-rule="evenodd" clip-rule="evenodd" fill="#FFFFFF" d="M145.8,43.1c-0.3,0.3-0.4,0.1-0.6,0.1
					C145.5,42.9,145.6,43.1,145.8,43.1z"/>
				<path fill-rule="evenodd" clip-rule="evenodd" fill="#FFFFFF" d="M147.6,40.7c-0.4,0.1-0.8-0.4-0.9-0.6
					C147.1,40.2,147.3,40.4,147.6,40.7z"/>
				<path fill-rule="evenodd" clip-rule="evenodd" fill="#FFFFFF" d="M157.4,29.4c-0.6,0.2-0.7-0.4-0.8-0.7
					C157,28.6,156.9,29.4,157.4,29.4z"/>
				<path fill-rule="evenodd" clip-rule="evenodd" fill="#FFFFFF" d="M153.1,33c-0.2,0.1-0.4,0-0.6-0.1
					C152.8,32.5,152.9,32.9,153.1,33z"/>
				<path fill-rule="evenodd" clip-rule="evenodd" fill="#FFFFFF" d="M153.5,31.7c-0.3,0.1-0.3-0.1-0.4-0.3
					C153.3,31.3,153.3,31.7,153.5,31.7z"/>
				<path fill-rule="evenodd" clip-rule="evenodd" fill="#FFFFFF" d="M154,30.3c-0.3,0.2-0.7,0-0.2-0.5c0.1,0,0,0.2-0.1,0.4
					C153.8,30.3,154,30.1,154,30.3z"/>
				<path fill-rule="evenodd" clip-rule="evenodd" fill="#FFFFFF" d="M147.2,36.5C147.7,36.3,147.6,37.2,147.2,36.5L147.2,36.5z"/>
				<path fill-rule="evenodd" clip-rule="evenodd" fill="#FFFFFF" d="M143.9,39.5c-0.3,0-0.5-0.1-0.6-0.4
					C143.5,39.1,143.9,39.4,143.9,39.5z"/>
				<path fill-rule="evenodd" clip-rule="evenodd" fill="#FFFFFF" d="M143.3,40c-0.2,0.3-0.5,0-0.2-0.2L143.3,40z"/>
				<path fill-rule="evenodd" clip-rule="evenodd" fill="#FFFFFF" d="M138.9,44.6c-0.2,0.1-0.4,0.1-0.4-0.1
					C138.7,44.3,139,44.4,138.9,44.6z"/>
				<path fill-rule="evenodd" clip-rule="evenodd" fill="#FFFFFF" d="M138.2,43.3C137.6,43.4,137.8,42.9,138.2,43.3L138.2,43.3z"/>
				<path fill-rule="evenodd" clip-rule="evenodd" fill="#FFFFFF" d="M146.7,51c-0.2,0.1-0.3,0-0.5,0.1c0.2-0.5-0.3-0.4-0.3-0.7
					C146.4,50.3,146.1,51,146.7,51z"/>
				<path fill-rule="evenodd" clip-rule="evenodd" fill="#FFFFFF" d="M149.3,39.4c-0.1-0.1,0.1-0.2-0.1-0.3c0.1-0.2,0.2-0.1,0.3-0.2
					c-0.1-0.3-0.4-0.2-0.6-0.4c0.1-0.1,0.2-0.1,0.3-0.2c-0.7,0.3-0.3-0.7-1-1c0.9-0.1,1.7,1.2,2.2,1.5c-0.4,0.3-0.5-0.4-0.8,0
					C149.3,39.1,149.7,39.1,149.3,39.4z"/>
				<path fill-rule="evenodd" clip-rule="evenodd" fill="#FFFFFF" d="M156.3,30.5C156.3,30.5,156.2,30.6,156.3,30.5
					c-0.3,0.3-0.3-0.1-0.3-0.1C156.3,30.2,156.8,30.9,156.3,30.5z"/>
				<path fill-rule="evenodd" clip-rule="evenodd" fill="#FFFFFF" d="M151.9,28.5l0.3-0.4c-0.3-0.2-0.9-0.5-0.8-1.1
					c0.6,0,0.8,1.3,1.6,0.9c0,0.1,0.1,0.2,0.1,0.4c1.3,0.1,1.7,1.5,2.9,1.9c-1.2,0.6-0.9-1.5-2.2-0.8c0-0.1,0.1-0.1,0.1,0
					C153.5,29.2,152.9,28.4,151.9,28.5z"/>
				<path fill-rule="evenodd" clip-rule="evenodd" fill="#FFFFFF" d="M142.6,40.6c-0.2,0.1-0.3,0.1-0.5,0.2
					C142.1,40.7,142.7,40.3,142.6,40.6z"/>
				<path fill-rule="evenodd" clip-rule="evenodd" fill="#FFFFFF" d="M203.1,141.9c0.1,0.2,0.7,0.3,0.8,0.5c0.4,0.6,0.3,1.3,0.8,1.8
					c0.5,0.4,1.3,0.6,1.8,1c0.3,0.3,0.6,0.4,0.9,0.6c0.9,0.6,1.1,1.3,2.3,1c1,0.1,1.9,0.6,2.8,0.6c0.1,0,0.2,0.2,0.3,0.2
					c2.4,0.2,5.5-0.6,7.5,0.1c0.7-0.2,1.6-0.7,2.5-0.9c0.4-0.1,0.8,0,1.2-0.1c1.5-0.5,2.9-1.7,4.2-1.8c0.3-0.2,0.4-0.3,0.6-0.5
					c2.6-1.5,4.6-3.1,6.6-4.1c0.9-1.1,2.3-1.8,3.3-2.8c0.6-0.6,1-1.3,1.5-2c0.6-0.7,1-1.4,1.6-2c0.8-0.5,0.7-0.9,1.3-1.4
					c0.2-0.7,0.7-1.4,0.9-2.1c0.2-0.2,0.3-0.4,0.6-0.6c0.8-1.7,1.9-3.6,1.6-5.1c0-0.1-0.1-0.4-0.2-0.6c-0.6-0.9-1.1-2.4-0.4-3.5
					c0-0.2-0.3-0.1-0.3-0.3c0.4-0.4,1.1-1.4,0.8-1.8c-0.1-0.1-0.9,0-1.2-0.2c-0.5-0.4,0.2-1.3-0.2-1.7c-0.2-0.2-0.9,0-1.2-0.1
					c-0.7-0.3-1.1-1.5-1.1-2.1c0-0.4,0.4-0.9,0.1-1.1c-0.2-0.2-0.9,0-1.7,0.5c-2.1,0.4-1.9-2.2-3.3-2.8c0.2-1.1-1.3-1.2-1.7-2
					c-0.1-0.2,0-0.5-0.1-0.6c-0.2-0.2-0.7-0.4-1-0.6c-0.5-0.4-0.8-0.9-1.3-1.2c0.6-1.3-0.9-1.1-1.2-1.7c-0.1-0.2,0.1-0.6-0.1-0.9
					c-0.1-0.2-0.5-0.2-0.7-0.5c-0.1-0.2,0.1-0.7-0.1-0.9c-0.1-0.2-0.4-0.2-0.4-0.3c-0.1-0.2,0.1-0.5-0.1-0.6
					c-0.2-0.2-0.7-0.1-0.8-0.3c-0.6-0.6-0.7-1.7-1.8-1.9c-0.1-1.6-1.8-2.1-2-3.9c-0.4-0.2-0.7-0.4-0.8-0.9c-0.1,0-0.4,0.1-0.4,0
					c-0.2-0.9-1.5-1.2-1.6-2.2c-0.1,0-0.3,0.1-0.4,0.1c-0.2-1.4-0.9-2.8-2-3.3c0.1-1-0.9-1.4-1.4-2.2c-0.2-0.4-0.2-0.9-0.5-1.2
					c-0.6-0.6-0.9-1.6-1.5-2.2c-0.2-0.2-0.6-0.2-0.7-0.4c-0.3-0.3-0.2-0.9-0.6-1.1c-1.5-1.1-2.1-3-2.9-4.3c-0.2-0.4-0.8-0.5-1.2-0.9
					c-0.6-0.6-0.6-1.7-1.1-2.4c-0.1-0.2-0.5-0.2-0.6-0.4c-0.4-0.4-0.4-0.9-0.8-1.4c-0.8-1.1-2-1.9-2.2-3.3c-1.5-1-2.6-3.1-3.7-4.7
					c-0.8,0-0.5-0.7-0.8-1c-0.9-1-2.5-2.1-2.9-3.6c-4.3-4.4-7.5-10-12.2-14.2c0.1-0.7-0.6-1.1-1.1-1.2c0.2-0.3,0-0.5,0-0.7
					c-1.1-0.1-1.2-1.3-1.9-1.9c-0.8,0.3-0.7-0.5-1.4-0.5c0.2-0.4,0.4-0.1,0.4-0.4c-1.5,0.4-2.3-1.7-3.2-2.2c0,0.1-0.1,0.2-0.2,0.2
					c0.1-0.4-0.5,0-0.6-0.3c-1.3-1.2-3.1-1.3-4.5-2.1c0-0.3,0.1-1-0.4-0.8c0.1,0.3,0.4,0.5-0.1,0.9c-0.2-0.5-0.7-0.7-1.3-0.6
					c-0.4-0.4-0.4-0.8-1-0.9c-0.1-0.1-0.4,0.5-0.5,0.3c-0.3-0.8-0.9-0.7-1.2-1.4c-0.5,0.2-1.2-0.2-1.2-0.6c-0.3,0-0.2,0.5-0.4,0.5
					c-0.6-0.3-1.1-0.6-1.3-1.2c-0.3,0.1-0.6,0.3-0.8,0.2c-0.1-0.1,0.4-0.3,0.1-0.4c-0.4,0.1-0.3,0.5-0.6,0.8
					c-0.4-0.1-0.5,0.2-0.9,0.3c-0.1-0.5-0.7-0.3-1.2-0.4c-0.4-0.1-0.6-0.6-1-0.7c-0.3-0.1-0.7,0.1-1-0.2c-0.2-0.2-0.1-0.7-0.4-0.9
					c-0.2-0.1-0.2,0.4-0.4,0.2c-0.9-0.7-1.9-1.4-3-1.4c1.6,0.2,1.6,1.6,3.1,1.8c-0.2,0.5,0.6,0.1,0.2,0.8c0.3-0.2,0.2-0.5,0.4-0.3
					c0,0.1,0,0.2,0.1,0.3c-0.6,0.3-0.4,0.5-0.6,0.9c0.7,0.6,1.5,1,2.1,1.6c0.2,0,0.2-0.3,0.4-0.3c0.3,0.2,0.4,0.4,0.8,0.6
					c-0.3,0.4-0.3,0.8-0.8,1.1c-0.8-0.9-2.5-1.3-3.6-2.1c-0.3-0.3-0.3-0.9-1-0.5c0.6,0.2,0.4,1.2,0.7,1.6c0.4,0.5,1.5,0.5,1.8,1.1
					c0.1,0.2,0,0.4,0.1,0.5c0.1,0.1,0.5,0,0.6,0.1c0.1,0.1-0.1,0.3,0,0.4c0.2,0.2,0.7,0,0.9,0.3c0.3,0.4,0.4,1.1,0.9,1.4
					c-0.1,0.2-0.5,0.6-0.7,0.5c-0.4-0.5-0.6-0.6-1.1-1c0,0.1,0,0.2-0.2,0.3c-0.1-0.2-0.1-0.3-0.4-0.2c0.4,0.4-0.3,1-0.8,1.1
					c-0.8-1-2.1-1.9-2.6-2.8c-0.3,0.1-0.6,0.3-0.8,0.2c-1-0.6-1.8-1.7-2.9-2.3c0.5,1.5,1.9,2.2,3.3,3.1c0,0.1-0.3,0.3-0.1,0.4
					c0.7,0.3,1.2,0.9,1.7,1.2c-0.2,0.5-0.4,1.1-0.7,1.6c1.5,0.9,0.8,3.3,1.9,4.5c-0.3,0.2-0.3,0.4-0.4,0.6c-0.3,0.1-0.7,0.3-0.9,0.4
					c-0.2-0.2-0.5-0.2-0.5-0.6c-1.7-0.3-2.5-2.1-4-2.9c-0.6,0.3-0.8,0.7-1,1.2c0.3,0.8,1.4,0.7,1.4,1.9c-0.8,1.2-1.8,1.6-2.2,1.2
					c-0.8-0.7-2-2.1-2.3-2.7c-2.8-1.5-4.7-3.8-7.5-5.2c1.2,1.2,2.8,1.8,3.6,3.2c0.2-0.2,0.3-0.2,0.4-0.1c1,1.1,2.2,2.3,3.5,2.9
					c-0.2,1,1.3,1.1,1,2.1c-1.1,0.8-1.8,1-2.5,0.8c0.5,0.4,0.5,1.1,0.8,1.5c0.2,0.3,1,0.6,0.9,0.9c0,0.1-0.3,0.2-0.2,0.3
					c-0.1-0.1,0.3,0.2,0.3,0.2c0.3,0,0.3-0.1,0.5,0.2c0.2,0.3,0.2,0.3,0.1,0.7c0.6,1,1.7,1.6,2.3,2.6c0.1,0.1,0.2,0.3,0.2,0.3
					c0,0.1-0.2,0.2-0.2,0.4c0,0.1,0.2-0.1,0.3,0c0.2,0.4,0.5,0.9,0.8,1.2c0.8,0.8,1.4,2.1,2,2.8c0.1,0.2-0.4,0.3-0.2,0.5
					c0.8,1.4,1.7,2.9,2.6,4.4c0,0.1-0.4,0.4-0.3,0.5c0.1,0.2,0.5-0.2,0.6,0c0,0.2-0.1,0.4-0.3,0.6c0.9,1.8,2.5,3.3,3.8,4.8
					c1.3,1.5,2.4,3.1,3.5,4.6c0.9,1.2,2.1,2.1,2.6,3.4c1.3,1.3,2.2,2.6,3.1,4c0.7,1,1.2,2.3,2,3.1c0.1,0.1,0.5,0.2,0.6,0.3
					c0.2,0.3,0,0.8,0.2,1c0.4,0.7,1.3,1.2,1.8,2c0.5,0.8,0.9,1.7,1.4,2.5c0.3,0.5,0.9,0.7,1.2,1.1c0.2,0.3,0.1,0.8,0.3,1.1
					c0.6,0.9,1.6,1.5,2,2.4c0.6,1.2,0.8,2.6,2,3.5c0.5,1.4,1.4,3,2.3,4.1c-0.2,1.5,1.2,2,1.7,3.2c0.1,0.1-0.1,0.3,0,0.4
					c0.4,2.1,2.7,3.3,3,5c0.8,0.2,0.5,1,0.7,1.5c0.2,0.6,0.8,0.9,1.1,1.3c0.1,0.2,0,0.4,0.1,0.6c0.2,0.5,0.9,0.8,1.3,1.3
					c0.6,0.8,0.3,2.2,1.4,2.8c0.1,1,0.3,2.3,1.3,2.9c0.1,1.9,1.9,2.8,2.4,4.4c0.2,0.6-0.1,1.3,0.7,1.5c-0.2,0.8,0.5,1.3,0.8,1.9
					c0.3,0.7,0.4,1.5,0.7,2.2c0.4,1,1.5,1.9,0.8,3.3c-2.1,1.7,1.7,0.3,1.6,1.3c-0.2,0.7-0.9,1-1.7,1.7c-0.1,0.6,0.3,0.8,0.7,1
					C203.6,140.5,202.8,141.4,203.1,141.9z M167.5,35.6c0.1-0.1,0.1-0.2,0.1-0.2C168.2,35.1,167.8,35.9,167.5,35.6z M167.2,35.7
					c-0.4-0.3-1.3-0.5-1.3-1.1c-0.1-0.1-0.4,0.5-0.7,0.5c0.1-0.4,0-0.7-0.2-1c0.7-0.7,0.8,0.3,1.5-0.3c0.2,0.3,0.2,0.4,0.6,0.2
					c0.2,0.7,0.7,0.4,0.8,0.9C167.5,35.2,167.7,35.2,167.2,35.7z"/>
			</g>
		</g>
	</g>
	<g>
		<g>
			<path fill="none" stroke="#FFFFFF" stroke-miterlimit="10" d="M229.8,220"/>
		</g>
	</g>
</g>
</svg>
