<?xml version="1.0" encoding="utf-8"?>
<!-- Generator: Adobe Illustrator 18.1.1, SVG Export Plug-In . SVG Version: 6.00 Build 0)  -->
<svg version="1.1" id="Layer_2" xmlns="http://www.w3.org/2000/svg" xmlns:xlink="http://www.w3.org/1999/xlink" x="0px" y="0px"
	 viewBox="0 0 300 300" enable-background="new 0 0 300 300" xml:space="preserve">
<circle fill="none" stroke="#FFFFFF" stroke-width="10" stroke-miterlimit="10" cx="150.2" cy="150" r="137.1"/>
<path fill="#FFFFFF" d="M246.7,52.6c0,0-6-8.7-19.1-15.8c-81.8-44.4-143-8.4-148.3-4.2c-129,102-32,208.2-32,208.2
	s48.9-47.4,54.7-53.2c2-2-32.7-17.9-26.3-16.7c10.8,2,0-5.4-3.5-16.8c-3.5-11.4-8.4-2.9-8.4-2.9c-0.3-5.9,12.6-12.3,6.6-11.4
	c-6.1,0.8-9.6,3.5-9.6,3.5c1-4.4,10.1-9.9,7.7-10.1s-9.7,5.3-9,4c4.5-8.3-0.9-13.1-0.4-16.8c0.5-3.7,6.2-5.9,4.9-10.8
	c-1.3-4.9-8.6-5.2-5.2-5.2s9.6,0,9.4-3c-0.2-3,4-4.4,6.4-8.4s-16.3-0.5-8.9-2.2c7.4-1.7,16.7-11.9,15.6-10.6
	c-0.7,0.9-11.8,1.9-8.8,1.5c3-0.3,9.5-4.6,8.9-5c0,0-5.8-0.8,0-2.7s5.6-6.2,4.6-4.5c-1,1.7-4.1-1.3-3.9-1.3c3.2-0.4,3.7-3.2,6.2-5
	c2.5-1.9-0.7-2.5,0.3-7.1c2.5-10.9-19.2-10.1,2.7-9.1c21.9,1,27.7-3.5,27.7-3.5c-2.4-1.6-21.5-7.7-13.2-5.9c5.4,1.2,23.4,0.3,21.7,0
	c-1.7-0.3-9.9-5.4-9.9-5.4s7.7,2.1,11.8,2.4c7.6,0.6,1-13.5,15.6-1.2c14.6,12.3,23.9,8.1,23,8.3c-1.8,0.4-9.7-13.7-9.7-13.7
	c5,3.5,17.2,14.6,29.8,14.1c12.6-0.5,14.1-4.2,14.1-3s-2.1,5.1,5.4,11.4c3.2,2.7,9.1,6,9.3,2.7c0.3-4,7.7,13.8,5,15.1
	c-2.7,1.3-17.8-0.1-15.8,0.1c1.5,0.2,13.7,4.9,16.6,7.1c1,0.7,1.6,1.2,1.6,1.2L248,53.9l-1.2-1.2L246.7,52.6z"/>
<path fill="#FFFFFF" d="M212.9,123.4c0,0,1.3-4,3.4-5c1.3-0.6,5.9,3.4,4.7,4.3C219.9,123.7,214.9,124.5,212.9,123.4z"/>
<path fill="#FFFFFF" d="M244.9,145.2c2.7-1.9,9.9-5.9,9.9-9.4c0-3.5-5.6-5.4-5.6-5.4c0,0,0,0,0,0c0,0-4-3.9-5.2-5.2
	c-1.4-1.5-3.7-4.9-6.6-7.9c-0.2-0.2-0.4-0.4-0.6-0.5c-1.1-0.7-4.4-3-4.6-3.6c-0.7-1.9-2.1-7.1-2.6-7.3c-0.2-0.1-2.4,3.4-2.8,3.5
	c-2,0.7-4.7-0.3-4.4,0.2c1.7,3.8-1.3,5.9-0.3,8.3c2.9,6.5,0.2,10.5,0.2,10.6c0,0-2,4.1-2,4.1c0,0-0.8-5.3-3.6-6.1
	c-1.7-0.5-6-1.7-9.4,0.7c-2.7,1.9,5.2-12.6,11.4-16.5c0.9-0.6-6.6,2.7-10.6,4.5c-0.5,0.2-1-0.4-0.6-0.8v0c0.4-0.4-0.1-1.1-0.6-0.8
	c-0.8,0.4-1.6,0.8-2.2,1.2c0,0,0,0,0,0c0,0,1.4-2.7,5-4.8c0.3-0.2,2.4-1.5,3.6-2.7c0.7-0.7,1.6-1.2,2.6-1.5c1.7-0.5,4.4-1.3,5.8-2.3
	c2-1.5,4.9-1.3,4.9-1.3s0,0,0,0c-5.9-7.1-7-14.1-7.1-17.2c0-0.8-0.4-1.1-0.4-1.1c-3.8-3.6-13.1-8.8-15.9-10.2
	c-1.1-0.5,2.4,4.4,1.7,5.4c-2,2.5-4.9,2.4-4.7,5.2c0.3,4.1-7.4-1.2-6.7-0.6c3.5,3-1.9,6.4-1.3,5.7c0.9-1-0.7-2.9-1.1-3.2
	c-4.1-3-7.1-8.3-13.3-8.5c0,0,6.9,4.6,3.8,9.8c-0.8,1.4-2.9,2.4-5.3,2.4c-5.7-0.2-11.5-4.6-11.5-4.6c-0.1,4.2,9.9,14.3,11.8,17.3
	c2.5,3.9-8.5,2.1-11-0.5c-1.3-1.4,1.5,3.1,2.4,7.8c1,4.8,5.5,10.5,8.8,12.1c5.4,2.5,0.9,11.7-3.7,10.3c-4.9-1.4-12.8-5.3-12.7-5.1
	c4.9,6,10.3,13.3,8,18c-0.4,0.8-1.5-4.7-4-5.1c-4.2-0.6-3.8,1.4-6.6,4.1c-3,3-10.6-2.9-12.1-3.4c-1.5-0.5-7.9-0.3-10.8,2.2
	s-8.7,9.6-2.9,18.3c0.7,1,2.5,1.7,3.2,4.5c0.7,2.9,9.1,7.9,11.6,9.1c1.2,0.6,4.9,1.5,6.2,1.2c1.3-0.2,2.2-0.3,2.2-0.3c0,0,0,0,0,0
	c0,0,3.9,2.2,6.6,2c2.7-0.2,5-2.4,5-2.4c0,0,0,0,0,0c0,0,0.3,6.5-15.1,3.7c-2.9-0.5,3.4,9.6,3.4,9.6c0,0,0,0,0,0
	c0,0,1.5,25.9-4.2,33.5c-5.7,7.6-6.7,4.4-6.7,4.4s-6.7-18.8-12.6-22.7c-9.1-6-12.7,2.5-12.7,2.5c0,0,0,0,0,0c0,0,4.8,13.5,6.2,23.3
	c1.3,9.9,1.3,21.5,1.3,21.5c0,0,0,0,0,0c0,0,23.5,1.2,28.2,2.7c5.9,1.9,8.9,5.5,9.6,6.9c11.5,23.6,9.5,21.5,13.3,19.5
	c0.7-0.4,13.1-3.1,13.1-3.1c0,0,0,0,0,0c0,0-1.6-13.4,0.8-21.5c2.8-9.7,19.5-40.9,23-44c0,0,0,0,0,0c0,0,0.4-7.8,0.6-8.9
	c0.7-4.3-18.6-3.4-24-3.5c-5.4-0.1-12.5-5.5-13.1-7c0-0.1-0.1-0.2-0.1-0.3c-0.8-2.3,1-4.6,3.4-4.7c1.2,0,2.8,0.2,4.8,1.1
	c5.7,2.5,14.2,6.6,26.2,6.1c11.9-0.5,26.4-2.5,29.4-4c3-1.5,8.3-6.5,8.4-9.3c0.1-2.4-2.3-3.5-2.3-6.7c0-1.8-2.3-2.9-3.7-2.9
	c-1,0-1.8-0.6-1.1-2.8c1.3-4.4,4.1-7.2,3.9-8.9c-0.1-0.5-3-1.9-5.4,1.2c-0.7,0.9-3.1,3.6-3.9,4.5c-0.2,0.3-0.7,0.2-0.8-0.2
	c0,0,0,0,0,0c-0.1-1.1,1.6-3,3.5-5.6c2.7-3.4,4.6-5.6,4.6-5.6c0,0,0,0,0,0c0,0,1.9-3.2,1-4C245,149.8,242.2,147.1,244.9,145.2z
	 M150.3,151.8c-1.9-2.2-2.3-2.9-4.9-4.3c0,0,0,0-0.1,0l-2.3-0.9c-0.6-0.2-0.4-1,0.2-1c2.5,0.2,6.3,1.6,8.1,7.6L150.3,151.8z
	 M156.9,166.8c-1.4-0.2,4.6-0.6,4.7-1c0-0.2-0.1-0.5-0.4-0.8c-0.9-1.2-0.6-1.5,0.7-0.8c1.4,0.8,2.6,1.7,2.5,2.1
	C164.2,167.5,160.9,167.2,156.9,166.8z M233.3,143.3l1.8,0.8c1,0.5,2.1,0.7,3.2,0.7c0,0,0.1,0,0.1,0l2.1,0.1
	C234.7,146.5,233.3,143.3,233.3,143.3z M243,140.9c-0.5,0.1-0.8-0.5-0.5-0.8c0.8-1,2.2-2.2,3.8-2.4c2.7-0.3,3.5,0.8,3.5,0.8
	c0,0,0,0,0,0c0,0-1.4,2.5-3.7,2c-0.3,0-0.7,0-1,0L243,140.9z"/>
</svg>
